<?xml version="1.0" encoding="UTF-8"?>
<svg width="24px" height="24px" viewBox="0 0 24 24" version="1.1" xmlns="http://www.w3.org/2000/svg" xmlns:xlink="http://www.w3.org/1999/xlink">
    <g id="Icons/Basic/angle-right-b" stroke="none" stroke-width="1"  fill-rule="evenodd">
        <g id="angle-right-b" transform="translate(8.400000, 6.000000)">
            <path d="M7.2384,6.0384 L1.8048,0.6144 C1.62454406,0.432659855 1.37917203,0.330433609 1.1232,0.330433609 C0.867227965,0.330433609 0.621855936,0.432659855 0.4416,0.6144 C0.0693853491,0.988835956 0.0693853491,1.59356404 0.4416,1.968 L5.1936,6.768 L0.4416,11.52 C0.0693853491,11.894436 0.0693853491,12.499164 0.4416,12.8736 C0.621188579,13.0568214 0.86664394,13.160535 1.1232,13.1616 C1.37975606,13.160535 1.62521142,13.0568214 1.8048,12.8736 L7.2384,7.4496 C7.43540274,7.26785704 7.54745558,7.01203094 7.54745558,6.744 C7.54745558,6.47596906 7.43540274,6.22014296 7.2384,6.0384 Z" id="Path"></path>
        </g>
    </g>
</svg>