<?xml version="1.0" encoding="UTF-8"?>
<svg width="24px" height="24px" viewBox="0 0 24 24" version="1.1" xmlns="http://www.w3.org/2000/svg" xmlns:xlink="http://www.w3.org/1999/xlink">

    <g id="Icons/Basic/angle-up" stroke="none" stroke-width="1" fill-rule="evenodd">
        <g id="angle-up" transform="translate(6.000000, 8.400000)">
            <path d="M10.56,5.1936 L6.4416,1.1232 C6.26134406,0.941459855 6.01597203,0.839233609 5.76,0.839233609 C5.50402797,0.839233609 5.25865594,0.941459855 5.0784,1.1232 L1.008,5.1936 C0.826259855,5.37385594 0.724033609,5.61922797 0.724033609,5.8752 C0.724033609,6.13117203 0.826259855,6.37654406 1.008,6.5568 C1.38243596,6.92901465 1.98716404,6.92901465 2.3616,6.5568 L5.76,3.1584 L9.1584,6.5568 C9.33721021,6.7341544 9.57855372,6.83413956 9.8304,6.8352 C10.0855709,6.83667529 10.3308299,6.73649905 10.512,6.5568 C10.7002321,6.38302746 10.8112016,6.141229 10.8202164,5.88520762 C10.8292312,5.62918623 10.7355436,5.38018154 10.56,5.1936 Z" id="Path"></path>
        </g>
    </g>
</svg>