<svg width="24px" height="24px" viewBox="0 0 24 24" version="1.1" xmlns="http://www.w3.org/2000/svg" xmlns:xlink="http://www.w3.org/1999/xlink">
    <g id="Icons/Basic/angle-down" stroke="none" stroke-width="1" fill-rule="evenodd">
        <g id="angle-left" transform="translate(8.400000, 6.000000)">
            <path d="M3.1584,5.76 L6.5568,2.3616 C6.92901465,1.98716404 6.92901465,1.38243596 6.5568,1.008 C6.37654406,0.826259855 6.13117203,0.724033609 5.8752,0.724033609 C5.61922797,0.724033609 5.37385594,0.826259855 5.1936,1.008 L1.1232,5.0784 C0.941459855,5.25865594 0.839233609,5.50402797 0.839233609,5.76 C0.839233609,6.01597203 0.941459855,6.26134406 1.1232,6.4416 L5.1936,10.56 C5.37477008,10.7396991 5.62002913,10.8398753 5.8752,10.8384161 C6.13037087,10.8398753 6.37562992,10.7396991 6.5568,10.56 C6.92901465,10.185564 6.92901465,9.58083596 6.5568,9.2064 L3.1584,5.76 Z" id="Path"></path>
        </g>
    </g>
</svg>