<svg width="24px" height="24px" viewBox="0 0 24 24" version="1.1">
    <g id="Icons/Basic/angle-right" stroke="none" stroke-width="1" fill-rule="evenodd">
        <g id="angle-right" transform="translate(8.400000, 7.200000)" >
            <path d="M6.5568,5.0784 L2.4864,1.008 C2.30614406,0.826259855 2.06077203,0.724033609 1.8048,0.724033609 C1.54882797,0.724033609 1.30345594,0.826259855 1.1232,1.008 C0.750985349,1.38243596 0.750985349,1.98716404 1.1232,2.3616 L4.5216,5.76 L1.1232,9.1584 C0.750985349,9.53283596 0.750985349,10.137564 1.1232,10.512 C1.30437008,10.6916991 1.54962913,10.7918753 1.8048,10.7904161 C2.05997087,10.7918753 2.30522992,10.6916991 2.4864,10.512 L6.5568,6.4416 C6.73854014,6.26134406 6.84076639,6.01597203 6.84076639,5.76 C6.84076639,5.50402797 6.73854014,5.25865594 6.5568,5.0784 Z" id="Path"></path>
        </g>
    </g>
</svg>