<?xml version="1.0" encoding="UTF-8"?>
<svg width="24px" height="24px" viewBox="0 0 24 24" version="1.1" xmlns="http://www.w3.org/2000/svg" xmlns:xlink="http://www.w3.org/1999/xlink">
    <g id="Icons/Basic/apps" stroke="none" stroke-width="1"  fill-rule="evenodd">
        <g id="apps" transform="translate(2.000000, 2.000000)">
            <path d="M8,11 L1,11 C0.44771525,11 0,11.4477153 0,12 L0,19 C0,19.5522847 0.44771525,20 1,20 L8,20 C8.55228475,20 9,19.5522847 9,19 L9,12 C9,11.4477153 8.55228475,11 8,11 Z M7,18 L2,18 L2,13 L7,13 L7,18 Z M19,0 L12,0 C11.4477153,0 11,0.44771525 11,1 L11,8 C11,8.55228475 11.4477153,9 12,9 L19,9 C19.5522847,9 20,8.55228475 20,8 L20,1 C20,0.44771525 19.5522847,0 19,0 Z M18,7 L13,7 L13,2 L18,2 L18,7 Z M19,11 L12,11 C11.4477153,11 11,11.4477153 11,12 L11,19 C11,19.5522847 11.4477153,20 12,20 L19,20 C19.5522847,20 20,19.5522847 20,19 L20,12 C20,11.4477153 19.5522847,11 19,11 Z M18,18 L13,18 L13,13 L18,13 L18,18 Z M8,0 L1,0 C0.44771525,0 0,0.44771525 0,1 L0,8 C0,8.55228475 0.44771525,9 1,9 L8,9 C8.55228475,9 9,8.55228475 9,8 L9,1 C9,0.44771525 8.55228475,0 8,0 Z M7,7 L2,7 L2,2 L7,2 L7,7 Z" id="Shape"></path>
        </g>
    </g>
</svg>