<?xml version="1.0" encoding="UTF-8"?>
<svg width="24px" height="24px" viewBox="0 0 24 24" version="1.1" xmlns="http://www.w3.org/2000/svg" xmlns:xlink="http://www.w3.org/1999/xlink">
    <g id="Icons/Basic/archive-alt" stroke="none" stroke-width="1"  fill-rule="evenodd">
        <g id="archive-alt" transform="translate(2.000000, 3.000000)" >
            <path d="M8,10 L12,10 C12.5522847,10 13,9.55228475 13,9 C13,8.44771525 12.5522847,8 12,8 L8,8 C7.44771525,8 7,8.44771525 7,9 C7,9.55228475 7.44771525,10 8,10 Z M17,-4.4408921e-16 L3,-4.4408921e-16 C1.54799513,0.0112652537 0.312491004,1.06081258 0.0666013675,2.49189027 C-0.179288269,3.92296796 0.635030641,5.32471856 2,5.82 L2,15 C2,16.6568542 3.34314575,18 5,18 L15,18 C16.6568542,18 18,16.6568542 18,15 L18,5.82 C19.3649694,5.32471856 20.1792883,3.92296796 19.9333986,2.49189027 C19.687509,1.06081258 18.4520049,0.0112652537 17,-4.4408921e-16 Z M16,15 C16,15.5522847 15.5522847,16 15,16 L5,16 C4.44771525,16 4,15.5522847 4,15 L4,6 L16,6 L16,15 Z M17,4 L3,4 C2.44771525,4 2,3.55228475 2,3 C2,2.44771525 2.44771525,2 3,2 L17,2 C17.5522847,2 18,2.44771525 18,3 C18,3.55228475 17.5522847,4 17,4 Z" id="Shape"></path>
        </g>
    </g>
</svg>