<?xml version="1.0" encoding="UTF-8"?>
<svg width="24px" height="24px" viewBox="0 0 24 24" version="1.1" xmlns="http://www.w3.org/2000/svg" xmlns:xlink="http://www.w3.org/1999/xlink">

    <g id="Icons/Basic/arrow-circle-up" stroke="none" stroke-width="1"  fill-rule="evenodd">
        <g id="arrow-circle-up" transform="translate(2.000000, 2.000000)" >
            <path d="M10.71,6.29 C10.6148963,6.19895937 10.5027513,6.12759439 10.38,6.08 C10.1365386,5.97998198 9.86346136,5.97998198 9.62,6.08 C9.49724868,6.12759439 9.38510371,6.19895937 9.29,6.29 L6.29,9.29 C5.89787783,9.68212217 5.89787783,10.3178778 6.29,10.71 C6.68212217,11.1021222 7.31787783,11.1021222 7.71,10.71 L9,9.41 L9,13 C9,13.5522847 9.44771525,14 10,14 C10.5522847,14 11,13.5522847 11,13 L11,9.41 L12.29,10.71 C12.4777666,10.8993127 12.7333625,11.0057983 13,11.0057983 C13.2666375,11.0057983 13.5222334,10.8993127 13.71,10.71 C13.8993127,10.5222334 14.0057983,10.2666375 14.0057983,10 C14.0057983,9.73336246 13.8993127,9.4777666 13.71,9.29 L10.71,6.29 Z M10,-4.4408921e-16 C4.4771525,-4.4408921e-16 1.77635684e-15,4.4771525 1.77635684e-15,10 C1.77635684e-15,15.5228475 4.4771525,20 10,20 C15.5228475,20 20,15.5228475 20,10 C20,7.3478351 18.9464316,4.80429597 17.0710678,2.92893219 C15.195704,1.0535684 12.6521649,-4.4408921e-16 10,-4.4408921e-16 Z M10,18 C5.581722,18 2,14.418278 2,10 C2,5.581722 5.581722,2 10,2 C14.418278,2 18,5.581722 18,10 C18,12.1217319 17.1571453,14.1565632 15.6568542,15.6568542 C14.1565632,17.1571453 12.1217319,18 10,18 Z" id="Shape"></path>
        </g>
    </g>
</svg>