<?xml version="1.0" encoding="UTF-8"?>
<svg width="24px" height="24px" viewBox="0 0 24 24" version="1.1" xmlns="http://www.w3.org/2000/svg" xmlns:xlink="http://www.w3.org/1999/xlink">

    <g id="Icons/Basic/arrow-circle-left" stroke="none" stroke-width="1"  fill-rule="evenodd">
        <g id="arrow-circle-left" transform="translate(2.000000, 2.000000)" >
            <path d="M6.29,9.29 C6.19895937,9.38510371 6.12759439,9.49724868 6.08,9.62 C5.97998198,9.86346136 5.97998198,10.1365386 6.08,10.38 C6.12759439,10.5027513 6.19895937,10.6148963 6.29,10.71 L9.29,13.71 C9.68212217,14.1021222 10.3178778,14.1021222 10.71,13.71 C11.1021222,13.3178778 11.1021222,12.6821222 10.71,12.29 L9.41,11 L13,11 C13.5522847,11 14,10.5522847 14,10 C14,9.44771525 13.5522847,9 13,9 L9.41,9 L10.71,7.71 C10.8993127,7.5222334 11.0057983,7.26663754 11.0057983,7 C11.0057983,6.73336246 10.8993127,6.4777666 10.71,6.29 C10.5222334,6.10068735 10.2666375,5.99420168 10,5.99420168 C9.73336246,5.99420168 9.4777666,6.10068735 9.29,6.29 L6.29,9.29 Z M-4.4408921e-16,10 C-4.4408921e-16,15.5228475 4.4771525,20 10,20 C15.5228475,20 20,15.5228475 20,10 C20,4.4771525 15.5228475,-4.4408921e-16 10,-4.4408921e-16 C4.4771525,-4.4408921e-16 -4.4408921e-16,4.4771525 -4.4408921e-16,10 Z M18,10 C18,14.418278 14.418278,18 10,18 C5.581722,18 2,14.418278 2,10 C2,5.581722 5.581722,2 10,2 C12.1217319,2 14.1565632,2.84285472 15.6568542,4.34314575 C17.1571453,5.84343678 18,7.87826808 18,10 Z" id="Shape"></path>
        </g>
    </g>
</svg>