<?xml version="1.0" encoding="UTF-8"?>
<svg width="24px" height="24px" viewBox="0 0 24 24" version="1.1" xmlns="http://www.w3.org/2000/svg" xmlns:xlink="http://www.w3.org/1999/xlink">

    <g id="Icons/Basic/arrow-circle-right" stroke="none" stroke-width="1"  fill-rule="evenodd">
        <g id="arrow-circle-right" transform="translate(2.000000, 2.000000)" >
            <path d="M13.71,10.71 C13.8010406,10.6148963 13.8724056,10.5027513 13.92,10.38 C14.020018,10.1365386 14.020018,9.86346136 13.92,9.62 C13.8724056,9.49724868 13.8010406,9.38510371 13.71,9.29 L10.71,6.29 C10.3178778,5.89787783 9.68212217,5.89787783 9.29,6.29 C8.89787783,6.68212217 8.89787783,7.31787783 9.29,7.71 L10.59,9 L7,9 C6.44771525,9 6,9.44771525 6,10 C6,10.5522847 6.44771525,11 7,11 L10.59,11 L9.29,12.29 C9.10068735,12.4777666 8.99420168,12.7333625 8.99420168,13 C8.99420168,13.2666375 9.10068735,13.5222334 9.29,13.71 C9.4777666,13.8993127 9.73336246,14.0057983 10,14.0057983 C10.2666375,14.0057983 10.5222334,13.8993127 10.71,13.71 L13.71,10.71 Z M20,10 C20,4.4771525 15.5228475,1.77635684e-15 10,1.77635684e-15 C4.4771525,1.77635684e-15 1.77635684e-15,4.4771525 1.77635684e-15,10 C1.77635684e-15,15.5228475 4.4771525,20 10,20 C15.5228475,20 20,15.5228475 20,10 Z M2,10 C2,5.581722 5.581722,2 10,2 C14.418278,2 18,5.581722 18,10 C18,14.418278 14.418278,18 10,18 C7.87826808,18 5.84343678,17.1571453 4.34314575,15.6568542 C2.84285472,14.1565632 2,12.1217319 2,10 Z" id="Shape"></path>
        </g>
    </g>
</svg>