<?xml version="1.0" encoding="UTF-8"?>
<svg width="24px" height="24px" viewBox="0 0 24 24" version="1.1" xmlns="http://www.w3.org/2000/svg" xmlns:xlink="http://www.w3.org/1999/xlink">

    <g id="Icons/Basic/arrow-to-bottom" stroke="none" stroke-width="1" fill-rule="evenodd">
        <g id="arrow-to-bottom" transform="translate(4.000000, 2.000000)" >
            <path d="M15,18 L1,18 C0.44771525,18 0,18.4477153 0,19 C0,19.5522847 0.44771525,20 1,20 L15,20 C15.5522847,20 16,19.5522847 16,19 C16,18.4477153 15.5522847,18 15,18 Z M7.29,15.71 C7.38510371,15.8010406 7.49724868,15.8724056 7.62,15.92 C7.86203988,16.0269768 8.13796012,16.0269768 8.38,15.92 C8.50275132,15.8724056 8.61489629,15.8010406 8.71,15.71 L12.71,11.71 C13.1021222,11.3178778 13.1021222,10.6821222 12.71,10.29 C12.3178778,9.89787784 11.6821222,9.89787784 11.29,10.29 L9,12.59 L9,1 C9,0.44771525 8.55228475,0 8,0 C7.44771525,0 7,0.44771525 7,1 L7,12.59 L4.71,10.29 C4.45634143,10.0363414 4.08662601,9.93727646 3.74012195,10.0301219 C3.3936179,10.1229674 3.12296742,10.3936179 3.03012194,10.740122 C2.93727646,11.086626 3.03634142,11.4563414 3.29,11.71 L7.29,15.71 Z" id="Shape"></path>
        </g>
    </g>
</svg>