<?xml version="1.0" encoding="UTF-8"?>
<svg width="24px" height="24px" viewBox="0 0 24 24" version="1.1" xmlns="http://www.w3.org/2000/svg" xmlns:xlink="http://www.w3.org/1999/xlink">

    <g id="Icons/Basic/asterisk" stroke="none" stroke-width="1"  fill-rule="evenodd">
        <g id="asterisk" transform="translate(4.000000, 4.000000)" >
            <path d="M14.562,10.63379 L10.00031,8 L14.562,5.36621 C15.0400805,5.08992295 15.2038098,4.47847727 14.9277672,4.00025558 C14.6517246,3.52203389 14.0403628,3.35799196 13.562,3.63379 L9,6.26776 L9,1 C9,0.44771525 8.55228475,0 8,0 C7.44771525,0 7,0.44771525 7,1 L7,6.26776 L2.438,3.63376 C1.95963724,3.35796196 1.34827535,3.52200389 1.07223277,4.00022558 C0.796190189,4.47844727 0.959919512,5.08989295 1.438,5.36618 L5.99969,8 L1.438,10.63379 C0.959919512,10.9100771 0.796190189,11.5215227 1.07223277,11.9997444 C1.34827535,12.4779661 1.95963724,12.642008 2.438,12.36621 L7,9.73224 L7,15 C7,15.5522847 7.44771525,16 8,16 C8.55228475,16 9,15.5522847 9,15 L9,9.73224 L13.562,12.36624 C14.0403628,12.642038 14.6517246,12.4779961 14.9277672,11.9997744 C15.2038098,11.5215527 15.0400805,10.9101071 14.562,10.63382 L14.562,10.63379 Z" id="Path"></path>
        </g>
    </g>
</svg>