<?xml version="1.0" encoding="UTF-8"?>
<svg width="24px" height="24px" viewBox="0 0 24 24" version="1.1" xmlns="http://www.w3.org/2000/svg" xmlns:xlink="http://www.w3.org/1999/xlink">
    <g id="Icons/Basic/atm-card" stroke="none" stroke-width="1"  fill-rule="evenodd">
        <g id="atm-card" transform="translate(2.000000, 5.000000)">
            <path d="M5,10 L8,10 C8.55228475,10 9,9.55228475 9,9 C9,8.44771525 8.55228475,8 8,8 L5,8 C4.44771525,8 4,8.44771525 4,9 C4,9.55228475 4.44771525,10 5,10 Z M17,0 L3,0 C1.34314575,0 -4.4408921e-16,1.34314575 -4.4408921e-16,3 L-4.4408921e-16,12 C-4.4408921e-16,13.6568542 1.34314575,15 3,15 L17,15 C18.6568542,15 20,13.6568542 20,12 L20,3 C20,1.34314575 18.6568542,0 17,0 Z M18,12 C18,12.5522847 17.5522847,13 17,13 L3,13 C2.44771525,13 2,12.5522847 2,12 L2,6 L18,6 L18,12 Z M18,4 L2,4 L2,3 C2,2.44771525 2.44771525,2 3,2 L17,2 C17.5522847,2 18,2.44771525 18,3 L18,4 Z" id="Shape"></path>
        </g>
    </g>
</svg>