<?xml version="1.0" encoding="UTF-8"?>
<svg width="24px" height="24px" viewBox="0 0 24 24" version="1.1" xmlns="http://www.w3.org/2000/svg" xmlns:xlink="http://www.w3.org/1999/xlink">
    <g id="Icons/Basic/backspace" stroke="none" stroke-width="1" fill-rule="evenodd">
        <g id="backspace" transform="translate(2.000000, 5.000000)" >
            <path d="M18,0 L8.83,0 C8.0346186,0.00070020816 7.27206943,0.31723005 6.71,0.88 L1.29,6.29 C1.10068735,6.4777666 0.994201676,6.73336246 0.994201676,7 C0.994201676,7.26663754 1.10068735,7.5222334 1.29,7.71 L6.71,13.12 C7.27206943,13.6827699 8.0346186,13.9992998 8.83,14 L18,14 C19.6568542,14 21,12.6568542 21,11 L21,3 C21,1.34314575 19.6568542,0 18,0 Z M19,11 C19,11.5522847 18.5522847,12 18,12 L8.83,12 C8.56523302,11.9963165 8.31163379,11.8927337 8.12,11.71 L3.41,7 L8.12,2.29 C8.31163379,2.10726627 8.56523302,2.00368349 8.83,2 L18,2 C18.5522847,2 19,2.44771525 19,3 L19,11 Z M15.71,4.29 C15.5222334,4.10068735 15.2666375,3.99420168 15,3.99420168 C14.7333625,3.99420168 14.4777666,4.10068735 14.29,4.29 L13,5.59 L11.71,4.29 C11.3178778,3.89787783 10.6821222,3.89787783 10.29,4.29 C9.89787783,4.68212217 9.89787783,5.31787783 10.29,5.71 L11.59,7 L10.29,8.29 C10.1006873,8.4777666 9.99420168,8.73336246 9.99420168,9 C9.99420168,9.26663754 10.1006873,9.5222334 10.29,9.71 C10.4777666,9.89931265 10.7333625,10.0057983 11,10.0057983 C11.2666375,10.0057983 11.5222334,9.89931265 11.71,9.71 L13,8.41 L14.29,9.71 C14.4777666,9.89931265 14.7333625,10.0057983 15,10.0057983 C15.2666375,10.0057983 15.5222334,9.89931265 15.71,9.71 C15.8993127,9.5222334 16.0057983,9.26663754 16.0057983,9 C16.0057983,8.73336246 15.8993127,8.4777666 15.71,8.29 L14.41,7 L15.71,5.71 C15.8993127,5.5222334 16.0057983,5.26663754 16.0057983,5 C16.0057983,4.73336246 15.8993127,4.4777666 15.71,4.29 Z" id="Shape"></path>
        </g>
    </g>
</svg>