<?xml version="1.0" encoding="UTF-8"?>
<svg width="24px" height="24px" viewBox="0 0 24 24" version="1.1" xmlns="http://www.w3.org/2000/svg" xmlns:xlink="http://www.w3.org/1999/xlink">
    <g id="Icons/Basic/bars" stroke="none" stroke-width="1" fill-rule="evenodd">
        <g id="bars" transform="translate(2.000000, 6.000000)" >
            <path d="M1,2 L19,2 C19.5522847,2 20,1.55228475 20,1 C20,0.44771525 19.5522847,0 19,0 L1,0 C0.44771525,0 0,0.44771525 0,1 C0,1.55228475 0.44771525,2 1,2 Z M19,10 L8.06629596,10 C7.51401121,10 7.06629596,10.4477153 7.06629596,11 C7.06629596,11.5522847 7.51401121,12 8.06629596,12 L19,12 C19.5522847,12 20,11.5522847 20,11 C20,10.4477153 19.5522847,10 19,10 Z M19,5 L4.06747918,5 C3.51519443,5 3.06747918,5.44771525 3.06747918,6 C3.06747918,6.55228475 3.51519443,7 4.06747918,7 L19,7 C19.5522847,7 20,6.55228475 20,6 C20,5.44771525 19.5522847,5 19,5 Z" id="Shape"></path>
        </g>
    </g>
</svg>