<?xml version="1.0" encoding="UTF-8"?>
<svg width="24px" height="24px" viewBox="0 0 24 24" version="1.1" xmlns="http://www.w3.org/2000/svg" xmlns:xlink="http://www.w3.org/1999/xlink">

    <g id="Icons/Basic/bell" stroke="none" stroke-width="1"  fill-rule="evenodd">
        <g id="bell" transform="translate(4.000000, 2.000000)" >
            <path d="M14,11.18 L14,8 C13.9970353,5.07447929 11.8846041,2.57758553 9,2.09 L9,1 C9,0.44771525 8.55228475,0 8,0 C7.44771525,0 7,0.44771525 7,1 L7,2.09 C4.11539594,2.57758553 2.00296468,5.07447929 2,8 L2,11.18 C0.804271303,11.6027483 0.00356436571,12.7317451 0,14 L0,16 C0,16.5522847 0.44771525,17 1,17 L4.14,17 C4.61339782,18.7419603 6.19485974,19.9510005 8,19.9510005 C9.80514026,19.9510005 11.3866022,18.7419603 11.86,17 L15,17 C15.5522847,17 16,16.5522847 16,16 L16,14 C15.9964356,12.7317451 15.1957287,11.6027483 14,11.18 Z M4,8 C4,5.790861 5.790861,4 8,4 C10.209139,4 12,5.790861 12,8 L12,11 L4,11 L4,8 Z M8,18 C7.28977788,17.9957131 6.63510459,17.6150891 6.28,17 L9.72,17 C9.36489541,17.6150891 8.71022212,17.9957131 8,18 Z M14,15 L2,15 L2,14 C2,13.4477153 2.44771525,13 3,13 L13,13 C13.5522847,13 14,13.4477153 14,14 L14,15 Z" id="Shape"></path>
        </g>
    </g>
</svg>