<?xml version="1.0" encoding="UTF-8"?>
<svg width="24px" height="24px" viewBox="0 0 24 24" version="1.1" xmlns="http://www.w3.org/2000/svg" xmlns:xlink="http://www.w3.org/1999/xlink">

    <g id="Icons/Basic/bell-slash" stroke="none" stroke-width="1"  fill-rule="evenodd">
        <g id="bell-slash" transform="translate(1.000000, 1.000000)" >
            <path d="M10.07,5.12 C10.3731665,5.0382261 10.6860059,4.99785973 11,5 C13.209139,5 15,6.790861 15,9 L15,10.34 C15,10.8922847 15.4477153,11.34 16,11.34 C16.5522847,11.34 17,10.8922847 17,10.34 L17,9 C16.9970353,6.07447929 14.8846041,3.57758553 12,3.09 L12,2 C12,1.44771525 11.5522847,1 11,1 C10.4477153,1 10,1.44771525 10,2 L10,3.1 L9.55,3.18 C9.0142838,3.32359404 8.69640599,3.8742838 8.84000002,4.40999999 C8.98359405,4.94571619 9.5342838,5.26359402 10.07,5.12 Z M20.71,19.29 L2.71,1.29 C2.31787783,0.897877838 1.68212218,0.897877842 1.29000001,1.29000001 C0.897877842,1.68212218 0.897877838,2.31787783 1.29,2.71 L5.41,6.82 C5.13902814,7.51486807 4.99998574,8.25416665 5,9 L5,12.18 C3.8042713,12.6027483 3.00356437,13.7317451 3,15 L3,17 C3,17.5522847 3.44771525,18 4,18 L7.14,18 C7.61339782,19.7419603 9.19485974,20.9510005 11,20.9510005 C12.8051403,20.9510005 14.3866022,19.7419603 14.86,18 L16.59,18 L19.29,20.71 C19.4777666,20.8993127 19.7333625,21.0057983 20,21.0057983 C20.2666375,21.0057983 20.5222334,20.8993127 20.71,20.71 C20.8993127,20.5222334 21.0057983,20.2666375 21.0057983,20 C21.0057983,19.7333625 20.8993127,19.4777666 20.71,19.29 Z M7,9 C6.984742,8.81698413 6.984742,8.63301587 7,8.45 L10.59,12 L7,12 L7,9 Z M11,19 C10.2897779,18.9957131 9.63510459,18.6150891 9.28,18 L12.72,18 C12.3648954,18.6150891 11.7102221,18.9957131 11,19 Z M5,16 L5,15 C5,14.4477153 5.44771525,14 6,14 L12.59,14 L14.59,16 L5,16 Z" id="Shape"></path>
        </g>
    </g>
</svg>