<?xml version="1.0" encoding="UTF-8"?>
<svg width="24px" height="24px" viewBox="0 0 24 24" version="1.1" xmlns="http://www.w3.org/2000/svg" xmlns:xlink="http://www.w3.org/1999/xlink">

    <g id="Icons/Basic/book" stroke="none" stroke-width="1"  fill-rule="evenodd">
        <g id="book" transform="translate(4.000000, 2.000000)" >
            <path d="M11,4 L5,4 C4.44771525,4 4,4.44771525 4,5 L4,9 C4,9.55228475 4.44771525,10 5,10 L11,10 C11.5522847,10 12,9.55228475 12,9 L12,5 C12,4.44771525 11.5522847,4 11,4 Z M10,8 L6,8 L6,6 L10,6 L10,8 Z M13,-4.4408921e-16 L1,-4.4408921e-16 C0.44771525,-4.4408921e-16 0,0.44771525 0,1 L0,19 C0,19.5522847 0.44771525,20 1,20 L13,20 C14.6568542,20 16,18.6568542 16,17 L16,3 C16,1.34314575 14.6568542,-4.4408921e-16 13,-4.4408921e-16 Z M14,17 C14,17.5522847 13.5522847,18 13,18 L2,18 L2,2 L13,2 C13.5522847,2 14,2.44771525 14,3 L14,17 Z" id="Shape"></path>
        </g>
    </g>
</svg>