<?xml version="1.0" encoding="UTF-8"?>
<svg width="24px" height="24px" viewBox="0 0 24 24" version="1.1" xmlns="http://www.w3.org/2000/svg" xmlns:xlink="http://www.w3.org/1999/xlink">

    <g id="Icons/Basic/book-open" stroke="none" stroke-width="1" fill-rule="evenodd">
        <g id="book-open" transform="translate(1.000000, 1.000000)">
            <path d="M20.17,1.06 C19.4531958,0.936533332 18.7273537,0.872980343 18,0.86999565 C15.5183653,0.867965516 13.0884854,1.5795732 11,2.92 C8.90614794,1.59717285 6.476651,0.903030866 4,0.92 C3.27264626,0.922980343 2.54680424,0.986533332 1.83,1.11 C1.34492416,1.19362738 0.992844076,1.61782026 0.999892867,2.11 L0.999892867,14.11 C0.995663962,14.4074817 1.12401159,14.6914469 1.35017319,14.8847474 C1.57633479,15.0780479 1.87682275,15.1606089 2.17,15.11 C5.06502872,14.6087498 8.039813,15.2974574 10.42,17.02 L10.54,17.09 L10.65,17.09 C10.874,17.1833333 11.126,17.1833333 11.35,17.09 L11.46,17.09 L11.58,17.02 C13.9437365,15.2588364 16.9199921,14.5301047 19.83,15 C20.1231773,15.0506089 20.4236652,14.9680479 20.6498268,14.7747474 C20.8759884,14.5814469 21.004336,14.2974817 21.0001064,14 L21.0001064,2 C20.9785608,1.53057055 20.6331628,1.13939688 20.17,1.06 Z M10,14.35 C8.14988345,13.3766881 6.09051805,12.8687113 4,12.87 C3.67,12.87 3.34,12.87 3,12.87 L3,2.87 C3.333057,2.85080497 3.666943,2.85080497 4,2.87 C6.1333858,2.86764228 8.22021428,3.49369082 10,4.67 L10,14.35 Z M19,12.91 C18.66,12.91 18.33,12.91 18,12.91 C15.909482,12.9087113 13.8501165,13.4166881 12,14.39 L12,4.67 C13.7797857,3.49369082 15.8666142,2.86764228 18,2.87 C18.333057,2.85080497 18.666943,2.85080497 19,2.87 L19,12.91 Z M20.17,17.06 C19.4531958,16.9365333 18.7273537,16.8729803 18,16.8699956 C15.5183653,16.8679655 13.0884854,17.5795732 11,18.92 C8.91151463,17.5795732 6.48163475,16.8679655 4,16.8699956 C3.27264626,16.8729803 2.54680424,16.9365333 1.83,17.06 C1.56708574,17.1017227 1.33165819,17.2465524 1.17586667,17.4624081 C1.02007515,17.6782638 0.956779403,17.9473278 1,18.21 C1.10580448,18.750663 1.62896997,19.1039115 2.17,19 C5.06502872,18.4987498 8.039813,19.1874574 10.42,20.91 C10.7671643,21.157178 11.2328357,21.157178 11.58,20.91 C13.960187,19.1874574 16.9349713,18.4987498 19.83,19 C20.37103,19.1039115 20.8941955,18.750663 21,18.21 C21.0432206,17.9473278 20.9799248,17.6782638 20.8241333,17.4624081 C20.6683418,17.2465524 20.4329143,17.1017227 20.17,17.06 L20.17,17.06 Z" id="Shape"></path>
        </g>
    </g>
</svg>