<?xml version="1.0" encoding="UTF-8"?>
<svg width="24px" height="24px" viewBox="0 0 24 24" version="1.1" xmlns="http://www.w3.org/2000/svg" xmlns:xlink="http://www.w3.org/1999/xlink">

    <g id="Icons/Basic/book-medical" stroke="none" stroke-width="1"  fill-rule="evenodd">
        <g id="book-medical" transform="translate(2.000000, 2.000000)" >
            <path d="M11,7 L9,7 L9,5 C9,4.44771525 8.55228475,4 8,4 C7.44771525,4 7,4.44771525 7,5 L7,7 L5,7 C4.44771525,7 4,7.44771525 4,8 C4,8.55228475 4.44771525,9 5,9 L7,9 L7,11 C7,11.5522847 7.44771525,12 8,12 C8.55228475,12 9,11.5522847 9,11 L9,9 L11,9 C11.5522847,9 12,8.55228475 12,8 C12,7.44771525 11.5522847,7 11,7 Z M16,13 L16,3 C16,1.34314575 14.6568542,-4.4408921e-16 13,-4.4408921e-16 L3,-4.4408921e-16 C1.34314575,-4.4408921e-16 -4.4408921e-16,1.34314575 -4.4408921e-16,3 L-4.4408921e-16,13 C-4.4408921e-16,14.6568542 1.34314575,16 3,16 L13,16 C14.6568542,16 16,14.6568542 16,13 Z M2,13 L2,3 C2,2.44771525 2.44771525,2 3,2 L13,2 C13.5522847,2 14,2.44771525 14,3 L14,13 C14,13.5522847 13.5522847,14 13,14 L3,14 C2.44771525,14 2,13.5522847 2,13 Z M19,4 C18.4477153,4 18,4.44771525 18,5 L18,15 C18,16.6568542 16.6568542,18 15,18 L5,18 C4.44771525,18 4,18.4477153 4,19 C4,19.5522847 4.44771525,20 5,20 L15,20 C17.7614237,20 20,17.7614237 20,15 L20,5 C20,4.44771525 19.5522847,4 19,4 Z" id="Shape"></path>
        </g>
    </g>
</svg>