<?xml version="1.0" encoding="UTF-8"?>
<svg width="24px" height="24px" viewBox="0 0 24 24" version="1.1" xmlns="http://www.w3.org/2000/svg" xmlns:xlink="http://www.w3.org/1999/xlink">

    <g id="Icons/Basic/books" stroke="none" stroke-width="1"  fill-rule="evenodd">
        <g id="books" transform="translate(1.000000, 2.000000)" >
            <path d="M21.47,16.82 L20.47,12.96 L20.47,12.96 L17.32,1.37 C17.1782783,0.837723221 16.6328045,0.520275344 16.1,0.66 L12.23,1.66 C12.0432861,1.45307737 11.7786881,1.33346459 11.5,1.33 L1.5,1.33 C0.94771525,1.33 0.5,1.77771525 0.5,2.33 L0.5,18.33 C0.5,18.8822847 0.94771525,19.33 1.5,19.33 L11.5,19.33 C12.0522847,19.33 12.5,18.8822847 12.5,18.33 L12.5,10.33 L14.7,18.55 C14.8206641,18.9992179 15.2351312,19.3059235 15.7,19.29 C15.786388,19.2998286 15.873612,19.2998286 15.96,19.29 L20.79,18 C21.0479212,17.9310436 21.2675594,17.7618142 21.4,17.53 C21.5054864,17.3087575 21.5302501,17.0575827 21.47,16.82 Z M5.47,17.37 L2.47,17.37 L2.47,15.37 L5.47,15.37 L5.47,17.37 Z M5.47,13.37 L2.47,13.37 L2.47,7.37 L5.47,7.37 L5.47,13.37 Z M5.47,5.37 L2.47,5.37 L2.47,3.37 L5.47,3.37 L5.47,5.37 Z M10.47,17.37 L7.47,17.37 L7.47,15.37 L10.47,15.37 L10.47,17.37 Z M10.47,13.37 L7.47,13.37 L7.47,7.37 L10.47,7.37 L10.47,13.37 Z M10.47,5.37 L7.47,5.37 L7.47,3.37 L10.47,3.37 L10.47,5.37 Z M12.72,3.63 L15.62,2.85 L16.14,4.78 L13.24,5.56 L12.72,3.63 Z M15.31,13.29 L13.76,7.49 L16.66,6.71 L18.21,12.51 L15.31,13.29 Z M16.31,17.15 L15.79,15.22 L18.69,14.44 L19.21,16.37 L16.31,17.15 Z" id="Shape"></path>
        </g>
    </g>
</svg>