<?xml version="1.0" encoding="UTF-8"?>
<svg width="24px" height="24px" viewBox="0 0 24 24" version="1.1" xmlns="http://www.w3.org/2000/svg" xmlns:xlink="http://www.w3.org/1999/xlink">

    <g id="Icons/Basic/bookmark" stroke="none" stroke-width="1"  fill-rule="evenodd">
        <g id="bookmark" transform="translate(5.000000, 2.000000)" >
            <path d="M10.9999921,-4.4408921e-16 L2.99999208,-4.4408921e-16 C1.34314575,-4.4408921e-16 -7.91594125e-06,1.34314575 -7.91594125e-06,3 L-7.91594125e-06,19 C-0.00142400634,19.3586848 0.189365807,19.690659 0.499992084,19.87 C0.809401077,20.0486328 1.19059892,20.0486328 1.49999208,19.87 L6.99999208,16.69 L12.4999921,19.87 C12.6524029,19.9563804 12.8248236,20.0012098 12.9999921,20 C13.1751764,20.0012098 13.3475971,19.9563804 13.4999921,19.87 C13.8106342,19.690659 14.001424,19.3586848 14.0000079,19 L14.0000079,3 C14.0000079,1.34314575 12.6568542,-4.4408921e-16 10.9999921,-4.4408921e-16 Z M12,17.27 L7.5,14.67 C7.19059892,14.4913672 6.80940108,14.4913672 6.5,14.67 L2,17.27 L2,3 C2,2.44771525 2.44771525,2 3,2 L11,2 C11.5522847,2 12,2.44771525 12,3 L12,17.27 Z" id="Shape"></path>
        </g>
    </g>
</svg>