<?xml version="1.0" encoding="UTF-8"?>
<svg width="24px" height="24px" viewBox="0 0 24 24" version="1.1" xmlns="http://www.w3.org/2000/svg" xmlns:xlink="http://www.w3.org/1999/xlink">

    <g id="Icons/Basic/bug" stroke="none" stroke-width="1"  fill-rule="evenodd">
        <g id="bug" transform="translate(2.000000, 2.000000)" >
            <path d="M17,12.0000001 L19,12.0000001 C19.5522847,12.0000001 20,11.5522847 20,11.0000001 C20,10.4477153 19.5522847,10.0000001 19,10.0000001 L17,10.0000001 L17,9.00000008 C16.9911549,8.53931355 16.9205245,8.08189771 16.79,7.64 C18.7138009,6.90243052 19.9881986,5.06031055 20,3.00000008 C20,2.44771525 19.5522847,2.00000008 19,2.00000008 C18.4477153,2.00000008 18,2.44771525 18,3.00000008 C17.9981939,4.32410007 17.1285296,5.49042553 15.86,5.87 C15.3668126,5.23797308 14.7288815,4.73380173 14,4.4 C14.0103515,4.26686758 14.0103515,4.13313242 14,4.00000008 C14,1.79086103 12.209139,8.42936974e-08 10,8.42936974e-08 C7.79086103,8.42936974e-08 6,1.79086103 6,4.00000008 C5.98964851,4.13313242 5.98964851,4.26686758 6,4.4 C5.25661718,4.72831451 4.6044622,5.23287652 4.1,5.87 C2.84730777,5.47605188 1.99641989,4.31317178 2,3.00000008 C2,2.64273441 1.80940108,2.31260739 1.5,2.1339746 C1.19059892,1.9553418 0.809401077,1.9553418 0.5,2.1339746 C0.190598923,2.31260739 0,2.64273441 0,3.00000008 C0.0118013957,5.06031055 1.28619905,6.90243052 3.21,7.64 C3.07947548,8.08189771 3.00884509,8.53931355 3,9.00000008 L3,10.0000001 L1,10.0000001 C0.44771525,10.0000001 0,10.4477153 0,11.0000001 C0,11.5522847 0.44771525,12.0000001 1,12.0000001 L3,12.0000001 L3,13.0000001 C3.00086359,13.4635006 3.04776043,13.9257695 3.14,14.38 C1.25046127,15.1372333 0.00862355948,16.9643958 0,19.0000001 C0,19.5522847 0.44771525,20.0000001 1,20.0000001 C1.55228475,20.0000001 2,19.5522847 2,19.0000001 C2.00552279,17.8082224 2.71597527,16.7327307 3.81,16.26 C5.02198006,18.5552036 7.40445473,19.9913764 10,19.9913764 C12.5955453,19.9913764 14.9780199,18.5552036 16.19,16.26 C17.2840247,16.7327307 17.9944772,17.8082224 18,19.0000001 C18,19.5522847 18.4477153,20.0000001 19,20.0000001 C19.5522847,20.0000001 20,19.5522847 20,19.0000001 C19.9913764,16.9643958 18.7495387,15.1372333 16.86,14.38 C16.9522396,13.9257695 16.9991364,13.4635006 17,13.0000001 L17,12.0000001 Z M8.99999989,17.9 C6.67166873,17.4247314 4.99951499,15.3763431 4.99999989,13 L4.99999989,9 C4.99999989,7.34314575 6.34314575,6 7.99999989,6 L8.99999989,6 L8.99999989,17.9 Z M8,4 C8,2.8954305 8.8954305,2 10,2 C11.1045695,2 12,2.8954305 12,4 L8,4 Z M15,13 C15.000485,15.3763431 13.3283313,17.4247314 11,17.9 L11,6 L12,6 C13.6568542,6 15,7.34314575 15,9 L15,13 Z" id="Shape"></path>
        </g>
    </g>
</svg>