<?xml version="1.0" encoding="UTF-8"?>
<svg width="24px" height="24px" viewBox="0 0 24 24" version="1.1" xmlns="http://www.w3.org/2000/svg" xmlns:xlink="http://www.w3.org/1999/xlink">

    <g id="Icons/Basic/calculator-alt" stroke="none" stroke-width="1"  fill-rule="evenodd">
        <g id="calculator-alt" transform="translate(1.000000, 1.000000)" >
            <path d="M4.5,7 L5,7 L5,7.5 C5,8.05228475 5.44771525,8.5 6,8.5 C6.55228475,8.5 7,8.05228475 7,7.5 L7,7 L7.5,7 C8.05228475,7 8.5,6.55228475 8.5,6 C8.5,5.44771525 8.05228475,5 7.5,5 L7,5 L7,4.5 C7,3.94771525 6.55228475,3.5 6,3.5 C5.44771525,3.5 5,3.94771525 5,4.5 L5,5 L4.5,5 C3.94771525,5 3.5,5.44771525 3.5,6 C3.5,6.55228475 3.94771525,7 4.5,7 Z M3.88,18.12 C4.27003745,18.5077236 4.89996255,18.5077236 5.29,18.12 L6,17.41 L6.71,18.12 C7.10003745,18.5077236 7.72996255,18.5077236 8.12,18.12 C8.50772359,17.7299625 8.50772359,17.1000375 8.12,16.71 L7.41,16 L8.12,15.29 C8.4597768,14.8932397 8.43693227,14.3018058 8.06756322,13.9324368 C7.69819417,13.5630677 7.10676028,13.5402232 6.71,13.88 L6,14.59 L5.29,13.88 C4.89323972,13.5402232 4.30180583,13.5630677 3.93243678,13.9324368 C3.56306773,14.3018058 3.5402232,14.8932397 3.88,15.29 L4.59,16 L3.88,16.71 C3.49227641,17.1000375 3.49227641,17.7299625 3.88,18.12 Z M19,-2.22044605e-16 L3,-2.22044605e-16 C1.34314575,-2.22044605e-16 -2.22044605e-16,1.34314575 -2.22044605e-16,3 L-2.22044605e-16,19 C-2.22044605e-16,20.6568542 1.34314575,22 3,22 L19,22 C20.6568542,22 22,20.6568542 22,19 L22,3 C22,1.34314575 20.6568542,-2.22044605e-16 19,-2.22044605e-16 Z M10,20 L3,20 C2.44771525,20 2,19.5522847 2,19 L2,12 L10,12 L10,20 Z M10,10 L2,10 L2,3 C2,2.44771525 2.44771525,2 3,2 L10,2 L10,10 Z M20,19 C20,19.5522847 19.5522847,20 19,20 L12,20 L12,12 L20,12 L20,19 Z M20,10 L12,10 L12,2 L19,2 C19.5522847,2 20,2.44771525 20,3 L20,10 Z M14.5,15.5 L17.5,15.5 C18.0522847,15.5 18.5,15.0522847 18.5,14.5 C18.5,13.9477153 18.0522847,13.5 17.5,13.5 L14.5,13.5 C13.9477153,13.5 13.5,13.9477153 13.5,14.5 C13.5,15.0522847 13.9477153,15.5 14.5,15.5 Z M17.5,5 L14.5,5 C13.9477153,5 13.5,5.44771525 13.5,6 C13.5,6.55228475 13.9477153,7 14.5,7 L17.5,7 C18.0522847,7 18.5,6.55228475 18.5,6 C18.5,5.44771525 18.0522847,5 17.5,5 Z M14.5,18.5 L17.5,18.5 C18.0522847,18.5 18.5,18.0522847 18.5,17.5 C18.5,16.9477153 18.0522847,16.5 17.5,16.5 L14.5,16.5 C13.9477153,16.5 13.5,16.9477153 13.5,17.5 C13.5,18.0522847 13.9477153,18.5 14.5,18.5 Z" id="Shape"></path>
        </g>
    </g>
</svg>