<?xml version="1.0" encoding="UTF-8"?>
<svg width="24px" height="24px" viewBox="0 0 24 24" version="1.1" xmlns="http://www.w3.org/2000/svg" xmlns:xlink="http://www.w3.org/1999/xlink">

    <g id="Icons/Basic/calendar-alt" stroke="none" stroke-width="1"  fill-rule="evenodd">
        <g id="calendar-alt" transform="translate(2.000000, 1.000000)" >
            <path d="M10,18 C10.5522847,18 11,17.5522847 11,17 C11,16.4477153 10.5522847,16 10,16 C9.44771525,16 9,16.4477153 9,17 C9,17.5522847 9.44771525,18 10,18 Z M15,18 C15.5522847,18 16,17.5522847 16,17 C16,16.4477153 15.5522847,16 15,16 C14.4477153,16 14,16.4477153 14,17 C14,17.5522847 14.4477153,18 15,18 Z M15,14 C15.5522847,14 16,13.5522847 16,13 C16,12.4477153 15.5522847,12 15,12 C14.4477153,12 14,12.4477153 14,13 C14,13.5522847 14.4477153,14 15,14 Z M10,14 C10.5522847,14 11,13.5522847 11,13 C11,12.4477153 10.5522847,12 10,12 C9.44771525,12 9,12.4477153 9,13 C9,13.5522847 9.44771525,14 10,14 Z M17,2 L16,2 L16,1 C16,0.44771525 15.5522847,0 15,0 C14.4477153,0 14,0.44771525 14,1 L14,2 L6,2 L6,1 C6,0.44771525 5.55228475,0 5,0 C4.44771525,0 4,0.44771525 4,1 L4,2 L3,2 C1.34314575,2 -4.4408921e-16,3.34314575 -4.4408921e-16,5 L-4.4408921e-16,19 C-4.4408921e-16,20.6568542 1.34314575,22 3,22 L17,22 C18.6568542,22 20,20.6568542 20,19 L20,5 C20,3.34314575 18.6568542,2 17,2 Z M18,19 C18,19.5522847 17.5522847,20 17,20 L3,20 C2.44771525,20 2,19.5522847 2,19 L2,10 L18,10 L18,19 Z M18,8 L2,8 L2,5 C2,4.44771525 2.44771525,4 3,4 L4,4 L4,5 C4,5.55228475 4.44771525,6 5,6 C5.55228475,6 6,5.55228475 6,5 L6,4 L14,4 L14,5 C14,5.55228475 14.4477153,6 15,6 C15.5522847,6 16,5.55228475 16,5 L16,4 L17,4 C17.5522847,4 18,4.44771525 18,5 L18,8 Z M5,14 C5.55228475,14 6,13.5522847 6,13 C6,12.4477153 5.55228475,12 5,12 C4.44771525,12 4,12.4477153 4,13 C4,13.5522847 4.44771525,14 5,14 Z M5,18 C5.55228475,18 6,17.5522847 6,17 C6,16.4477153 5.55228475,16 5,16 C4.44771525,16 4,16.4477153 4,17 C4,17.5522847 4.44771525,18 5,18 Z" id="Shape"></path>
        </g>
    </g>
</svg>