<?xml version="1.0" encoding="UTF-8"?>
<svg width="24px" height="24px" viewBox="0 0 24 24" version="1.1" xmlns="http://www.w3.org/2000/svg" xmlns:xlink="http://www.w3.org/1999/xlink">

    <g id="Icons/Basic/cancel" stroke="none" stroke-width="1"  fill-rule="evenodd">
        <g id="cancel" transform="translate(2.000000, 5.000000)" >
            <path d="M19.77,6.36 L14.77,0.36 C14.5796435,0.131459904 14.2974322,-0.000483028551 14,-1.32161569e-06 L3,-1.32161569e-06 C1.34314575,-1.32161569e-06 -4.4408921e-16,1.34314575 -4.4408921e-16,2.99999868 L-4.4408921e-16,10.9999987 C-4.4408921e-16,12.6568542 1.34314575,13.9999987 3,13.9999987 L14,13.9999987 C14.2974322,14.000483 14.5796435,13.8685401 14.77,13.64 L19.77,7.64 C20.0788335,7.26921894 20.0788335,6.73078106 19.77,6.36 Z M13.53,12 L3,12 C2.44771525,12 2,11.5522847 2,11 L2,3 C2,2.44771525 2.44771525,2 3,2 L13.53,2 L17.7,7 L13.53,12 Z M10.71,4.29 C10.5222334,4.10068735 10.2666375,3.99420168 10,3.99420168 C9.73336246,3.99420168 9.4777666,4.10068735 9.29,4.29 L8,5.59 L6.71,4.29 C6.45634143,4.03634143 6.08662601,3.93727648 5.74012196,4.03012196 C5.39361791,4.12296744 5.12296744,4.39361791 5.03012196,4.74012196 C4.93727648,5.08662601 5.03634143,5.45634143 5.29,5.71 L6.59,7 L5.29,8.29 C5.10068735,8.4777666 4.99420168,8.73336246 4.99420168,9 C4.99420168,9.26663754 5.10068735,9.5222334 5.29,9.71 C5.4777666,9.89931265 5.73336246,10.0057983 6,10.0057983 C6.26663754,10.0057983 6.5222334,9.89931265 6.71,9.71 L8,8.41 L9.29,9.71 C9.4777666,9.89931265 9.73336246,10.0057983 10,10.0057983 C10.2666375,10.0057983 10.5222334,9.89931265 10.71,9.71 C10.8993127,9.5222334 11.0057983,9.26663754 11.0057983,9 C11.0057983,8.73336246 10.8993127,8.4777666 10.71,8.29 L9.41,7 L10.71,5.71 C10.8993127,5.5222334 11.0057983,5.26663754 11.0057983,5 C11.0057983,4.73336246 10.8993127,4.4777666 10.71,4.29 Z" id="Shape"></path>
        </g>
    </g>
</svg>