<?xml version="1.0" encoding="UTF-8"?>
<svg width="24px" height="24px" viewBox="0 0 24 24" version="1.1" xmlns="http://www.w3.org/2000/svg" xmlns:xlink="http://www.w3.org/1999/xlink">

    <g id="Icons/Basic/chart-pie" stroke="none" stroke-width="1"  fill-rule="evenodd">
        <g id="chart-pie" transform="translate(1.000000, 2.000000)" >
            <path d="M11,1 C6.80112166,0.99240333 3.04470124,3.60867876 1.59597664,7.54972356 C0.147252036,11.4907684 1.3148175,15.9170967 4.51892235,18.6308301 C7.72302719,21.3445636 12.2811619,21.7676471 15.93,19.69 L16,19.69 L16.05,19.69 C20.0098404,17.435811 21.945153,12.7897914 20.7566171,8.39103176 C19.5680812,3.99227211 15.5562605,0.953155799 11,1 Z M12,3.07 C15.6201903,3.52908545 18.4709146,6.37980969 18.93,10 L12,10 L12,3.07 Z M11,19 C6.79746874,18.9713257 3.33360006,15.6957697 3.07029982,11.5013967 C2.80699957,7.30702383 5.8340461,3.62400298 10,3.07 L10,11 C10.0039432,11.1197204 10.0275936,11.2379722 10.07,11.35 L10.07,11.43 L10.07,11.5 L14.07,18.37 C13.099745,18.7852721 12.0553888,18.9995863 11,19 L11,19 Z M15.83,17.36 L12.73,12 L18.93,12 C18.6580139,14.1303429 17.5409018,16.0618658 15.83,17.36 Z" id="Shape"></path>
        </g>
    </g>
</svg>