<?xml version="1.0" encoding="UTF-8"?>
<svg width="24px" height="24px" viewBox="0 0 24 24" version="1.1" xmlns="http://www.w3.org/2000/svg" xmlns:xlink="http://www.w3.org/1999/xlink">

    <g id="Icons/Basic/chart-bar" stroke="none" stroke-width="1"  fill-rule="evenodd">
        <g id="chart-bar" transform="translate(2.000000, 2.000000)" >
            <path d="M19,18 L18,18 L18,3 C18,2.44771525 17.5522847,2 17,2 C16.4477153,2 16,2.44771525 16,3 L16,18 L14,18 L14,11 C14,10.4477153 13.5522847,10 13,10 C12.4477153,10 12,10.4477153 12,11 L12,18 L10,18 L10,7 C10,6.44771525 9.55228475,6 9,6 C8.44771525,6 8,6.44771525 8,7 L8,18 L6,18 L6,15 C6,14.4477153 5.55228475,14 5,14 C4.44771525,14 4,14.4477153 4,15 L4,18 L2,18 L2,1 C2,0.44771525 1.55228475,0 1,0 C0.44771525,0 0,0.44771525 0,1 L0,19 C0,19.5522847 0.44771525,20 1,20 L19,20 C19.5522847,20 20,19.5522847 20,19 C20,18.4477153 19.5522847,18 19,18 Z" id="Path"></path>
        </g>
    </g>
</svg>