<?xml version="1.0" encoding="UTF-8"?>
<svg width="24px" height="24px" viewBox="0 0 24 24" version="1.1" xmlns="http://www.w3.org/2000/svg" xmlns:xlink="http://www.w3.org/1999/xlink">

    <g id="Icons/Basic/chat-bubble-user" stroke="none" stroke-width="1"  fill-rule="evenodd">
        <g id="chat-bubble-user" transform="translate(3.000000, 2.000000)" >
            <path d="M11.58,9.3 C12.0344892,8.7319488 12.2845791,8.02747045 12.29,7.3 C12.29,5.48298317 10.8170168,4.01 9,4.01 C7.18298317,4.01 5.71,5.48298317 5.71,7.3 C5.71542094,8.02747045 5.96551076,8.7319488 6.42,9.3 C5.52862777,9.84244624 4.82929734,10.6501729 4.42,11.61 C4.26399262,11.9416478 4.30191267,12.3320669 4.51882566,12.6274942 C4.73573864,12.9229216 5.09688548,13.0760164 5.46003152,13.0264837 C5.82317756,12.976951 6.13013069,12.732728 6.26,12.39 C6.72969132,11.2920604 7.80583559,10.5772493 9,10.57 L9,10.57 C10.1978028,10.5732711 11.278867,11.288739 11.75,12.39 C11.9064992,12.7595049 12.2687198,12.999673 12.67,13 C12.8038089,12.9975019 12.9360137,12.970383 13.06,12.92 C13.5677826,12.7042949 13.8049432,12.1181056 13.59,11.61 C13.1780682,10.6487419 12.475093,9.84084507 11.58,9.3 Z M9,8.57 L9,8.57 C8.47733707,8.57 8.00633597,8.25459289 7.80726861,7.7713241 C7.60820125,7.28805531 7.72041344,6.73242756 8.09142718,6.36428989 C8.46244092,5.99615223 9.01892509,5.88826732 9.5006301,6.09108945 C9.98233512,6.29391157 10.2940517,6.76735278 10.29,7.29 C10.2845073,7.998539 9.70856029,8.57 9,8.57 L9,8.57 Z M15,-4.4408921e-16 L3,-4.4408921e-16 C1.34314575,-4.4408921e-16 0,1.34314575 0,3 L0,14 C0,15.6568542 1.34314575,17 3,17 L5.59,17 L8.29,19.71 C8.47871883,19.8971865 8.73419702,20.0015368 9,20.0000167 C9.23834452,20.0000167 9.46885816,19.9149056 9.65,19.76 L12.87,17 L15,17 C16.6568542,17 18,15.6568542 18,14 L18,3 C18,1.34314575 16.6568542,-4.4408921e-16 15,-4.4408921e-16 Z M16,14 C16,14.5522847 15.5522847,15 15,15 L12.5,15 C12.2616555,14.9999817 12.0311418,15.0850944 11.85,15.24 L9.05,17.64 L6.71,15.29 C6.52128117,15.1028135 6.26580298,14.9984632 6,15 L3,15 C2.44771525,15 2,14.5522847 2,14 L2,3 C2,2.44771525 2.44771525,2 3,2 L15,2 C15.5522847,2 16,2.44771525 16,3 L16,14 Z" id="Shape"></path>
        </g>
    </g>
</svg>