<?xml version="1.0" encoding="UTF-8"?>
<svg width="24px" height="24px" viewBox="0 0 24 24" version="1.1" xmlns="http://www.w3.org/2000/svg" xmlns:xlink="http://www.w3.org/1999/xlink">

    <g id="Icons/Basic/check" stroke="none" stroke-width="1"  fill-rule="evenodd">
        <g id="check" transform="translate(4.000000, 6.000000)" >
            <path d="M14.71,1.21 C14.5222334,1.02068735 14.2666375,0.914201676 14,0.914201676 C13.7333625,0.914201676 13.4777666,1.02068735 13.29,1.21 L5.84,8.67 L2.71,5.53 C2.44740979,5.27634142 2.06944119,5.18204145 1.71847132,5.28262195 C1.36750145,5.38320246 1.09685098,5.66338288 1.00847132,6.01762196 C0.920091657,6.37186104 1.02740979,6.74634143 1.29,7 L5.13,10.84 C5.3177666,11.0293127 5.57336246,11.1357983 5.84,11.1357983 C6.10663754,11.1357983 6.3622334,11.0293127 6.55,10.84 L14.71,2.68 C14.9152112,2.49068442 15.0319329,2.22419889 15.0319329,1.945 C15.0319329,1.66580111 14.9152112,1.39931558 14.71,1.21 Z" id="Path"></path>
        </g>
    </g>
</svg>