<?xml version="1.0" encoding="UTF-8"?>
<svg width="24px" height="24px" viewBox="0 0 24 24" version="1.1" xmlns="http://www.w3.org/2000/svg" xmlns:xlink="http://www.w3.org/1999/xlink">

    <g id="Icons/Basic/cloud-download" stroke="none" stroke-width="1"  fill-rule="evenodd">
        <g id="cloud-download" transform="translate(0.000000, 2.000000)" >
            <path d="M13.29,15.29 L12,16.59 L12,11 C12,10.4477153 11.5522847,10 11,10 C10.4477153,10 10,10.4477153 10,11 L10,16.59 L8.71,15.29 C8.45634143,15.0363414 8.08662601,14.9372765 7.74012196,15.030122 C7.39361791,15.1229674 7.12296744,15.3936179 7.03012196,15.740122 C6.93727648,16.086626 7.03634143,16.4563414 7.29,16.71 L10.29,19.71 C10.3851037,19.8010406 10.4972487,19.8724056 10.62,19.92 C10.8620399,20.0269768 11.1379601,20.0269768 11.38,19.92 C11.5027513,19.8724056 11.6148963,19.8010406 11.71,19.71 L14.71,16.71 C14.9636586,16.4563414 15.0627235,16.086626 14.969878,15.740122 C14.8770326,15.3936179 14.6063821,15.1229674 14.259878,15.030122 C13.913374,14.9372765 13.5436586,15.0363414 13.29,15.29 L13.29,15.29 Z M17.42,4.22 C16.1641825,1.33434404 13.1370166,-0.358508981 10.0209667,0.0823094551 C6.90491678,0.523127891 4.46610694,2.98923647 4.06,6.11 C2.08648649,6.58261454 0.779592496,8.45815024 1.01966358,10.473215 C1.25973467,12.4882797 2.97068933,14.0042745 5,14.000009 C5.55228475,14.000009 6,13.5522847 6,13 C6,12.4477153 5.55228475,12 5,12 C3.8954305,12 3,11.1045695 3,10 C3,8.8954305 3.8954305,8 5,8 C5.26521649,8 5.5195704,7.89464316 5.70710678,7.70710678 C5.89464316,7.5195704 6,7.26521649 6,7 C6.00527496,4.55768714 7.77419383,2.47657703 10.1837489,2.07787367 C12.5933039,1.67917032 14.9382985,3.07956095 15.73,5.39 C15.8464705,5.74013872 16.1462981,5.99768288 16.51,6.06 C17.8815165,6.31918525 18.8930855,7.49002661 18.9503984,8.88464116 C19.0077114,10.2792557 18.0956247,11.5291514 16.75,11.9 C16.4034524,11.9893164 16.1308789,12.2567291 16.0349553,12.6015063 C15.9390318,12.9462836 16.0343313,13.3160455 16.2849553,13.5715064 C16.5355794,13.8269672 16.9034524,13.9293164 17.25,13.84 C19.4124221,13.2685883 20.9323148,11.3305641 20.9718336,9.09426837 C21.0113523,6.85797259 19.5608828,4.86745767 17.42,4.22 Z" id="Shape"></path>
        </g>
    </g>
</svg>