<?xml version="1.0" encoding="UTF-8"?>
<svg width="24px" height="24px" viewBox="0 0 24 24" version="1.1" xmlns="http://www.w3.org/2000/svg" xmlns:xlink="http://www.w3.org/1999/xlink">

    <g id="Icons/Basic/cloud-bookmark" stroke="none" stroke-width="1"  fill-rule="evenodd">
        <g id="cloud-bookmark" transform="translate(1.000000, 3.000000)" >
            <path d="M13.9999989,8 L8.99999886,8 C8.44771525,8 7.99999886,8.44771525 7.99999886,9 L7.99999886,17 C7.99944166,17.3702114 8.20346072,17.7104396 8.53029204,17.8843306 C8.85712336,18.0582216 9.25328252,18.037319 9.56,17.83 L11.4999989,16.53 L13.39,17.79 C13.5645498,17.9254677 13.7790506,17.9993122 13.9999989,18 C14.1523698,18.0006236 14.3028673,17.9664197 14.44,17.9 C14.783391,17.7317466 15.0007653,17.3823951 14.9999989,17 L14.9999989,9 C14.9999989,8.44771525 14.5522847,8 13.9999989,8 Z M13,15.12 L12.06,14.49 C11.7216843,14.2613235 11.2783157,14.2613235 10.94,14.49 L10,15.13 L10,10 L13,10 L13,15.12 Z M17.42,4.22 C16.1641825,1.33434404 13.1370166,-0.358508981 10.0209667,0.0823094551 C6.90491678,0.523127891 4.46610694,2.98923647 4.06,6.11 C2.08648649,6.58261454 0.779592496,8.45815024 1.01966358,10.473215 C1.25973467,12.4882797 2.97068933,14.0042745 5,14.000009 C5.55228475,14.000009 6,13.5522847 6,13 C6,12.4477153 5.55228475,12 5,12 C3.8954305,12 3,11.1045695 3,10 C3,8.8954305 3.8954305,8 5,8 C5.55228475,8 6,7.55228475 6,7 C6.00527496,4.55768714 7.77419383,2.47657703 10.1837489,2.07787367 C12.5933039,1.67917032 14.9382985,3.07956095 15.73,5.39 C15.8464705,5.74013872 16.1462981,5.99768288 16.51,6.06 C17.7414196,6.2828825 18.7051268,7.24674321 18.9278131,8.47819836 C19.1504994,9.7096535 18.5853785,10.949975 17.51,11.59 C17.0295123,11.8661424 16.8638576,12.4795123 17.14,12.96 C17.4161424,13.4404877 18.0295123,13.6061424 18.51,13.33 C20.0531178,12.434321 21.0020198,10.7842223 21.0000032,9 C20.9937578,6.79072447 19.5383181,4.84742794 17.42,4.22 Z" id="Shape"></path>
        </g>
    </g>
</svg>