<?xml version="1.0" encoding="UTF-8"?>
<svg width="24px" height="24px" viewBox="0 0 24 24" version="1.1" xmlns="http://www.w3.org/2000/svg" xmlns:xlink="http://www.w3.org/1999/xlink">

    <g id="Icons/Basic/cloud-check" stroke="none" stroke-width="1"  fill-rule="evenodd">
        <g id="cloud-check" transform="translate(2.000000, 3.000000)" >
            <path d="M12.29,10.19 L9,13.48 L7.71,12.19 C7.5222334,12.0006873 7.26663754,11.8942017 7,11.8942017 C6.73336246,11.8942017 6.4777666,12.0006873 6.29,12.19 C5.90227641,12.5800375 5.90227641,13.2099625 6.29,13.6 L8.29,15.6 C8.4777666,15.7893127 8.73336246,15.8957983 9,15.8957983 C9.26663754,15.8957983 9.5222334,15.7893127 9.71,15.6 L13.71,11.6 C14.0977236,11.2099625 14.0977236,10.5800375 13.71,10.19 C13.5222334,10.0006873 13.2666375,9.89420168 13,9.89420168 C12.7333625,9.89420168 12.4777666,10.0006873 12.29,10.19 Z M16.42,4.32 C15.1627608,1.43389616 12.133574,-0.257918339 9.01687992,0.18532408 C5.90018586,0.628566499 3.4627673,3.09781739 3.06,6.22 C1.34753132,6.64488918 0.115714196,8.1416182 0.0281791119,9.90383766 C-0.059355972,11.6660571 1.01806862,13.2774936 2.68,13.87 C3.02895883,14.0531118 3.45292144,14.0142015 3.76272036,13.7706306 C4.07251929,13.5270596 4.21037825,13.1242529 4.1147861,12.7419385 C4.01919395,12.359624 3.70797824,12.069102 3.32,12 C2.52116881,11.7112356 1.99188119,10.9493823 2,10.1 C2,8.9954305 2.8954305,8.1 4,8.1 C4.55228475,8.1 5,7.65228475 5,7.1 C5.01010741,4.65955714 6.78053101,2.58295974 9.18865358,2.18696836 C11.5967762,1.79097698 13.9389442,3.19130032 14.73,5.5 C14.8495013,5.84625039 15.148746,6.09945743 15.51,6.16 C16.8815165,6.41918525 17.8930855,7.59002661 17.9503984,8.98464116 C18.0077114,10.3792557 17.0956247,11.6291514 15.75,12 C15.1977153,12.0690356 14.8059644,12.5727153 14.875,13.125 C14.9440356,13.6772847 15.4477153,14.0690356 16,14 L16.25,14 C18.4124221,13.4285883 19.9323148,11.4905641 19.9718336,9.25426837 C20.0113523,7.01797259 18.5608828,5.02745767 16.42,4.38 L16.42,4.32 Z" id="Shape"></path>
        </g>
    </g>
</svg>