<?xml version="1.0" encoding="UTF-8"?>
<svg width="24px" height="24px" viewBox="0 0 24 24" version="1.1" xmlns="http://www.w3.org/2000/svg" xmlns:xlink="http://www.w3.org/1999/xlink">

    <g id="Icons/Basic/cloud-block" stroke="none" stroke-width="1"  fill-rule="evenodd">
        <g id="cloud-block" transform="translate(2.000000, 3.000000)" >
            <path d="M16.42,4.72 C15.1641825,1.83434404 12.1370166,0.141491019 9.02096668,0.582309455 C5.90491678,1.02312789 3.46610694,3.48923647 3.06,6.61 C1.33946017,7.02906145 0.0992363784,8.52953058 0.0114958797,10.2981943 C-0.0762446189,12.066858 1.00938366,13.6827089 2.68,14.27 C2.78371238,14.301946 2.8914858,14.3187856 3,14.32 C3.55228474,14.4083655 4.07163442,14.0322847 4.15999997,13.48 C4.24836553,12.9277153 3.87228474,12.4083656 3.32,12.32 C2.54837968,12.0414637 2.02509835,11.3199698 2,10.5 C2,9.3954305 2.8954305,8.5 4,8.5 C4.55228475,8.5 5,8.05228475 5,7.5 C5.00527496,5.05768714 6.77419383,2.97657703 9.18374888,2.57787367 C11.5933039,2.17917032 13.9382985,3.57956095 14.73,5.89 C14.8464705,6.24013872 15.1462981,6.49768288 15.51,6.56 C16.7414196,6.7828825 17.7051268,7.74674321 17.9278131,8.97819836 C18.1504994,10.2096535 17.5853785,11.449975 16.51,12.09 C16.0295123,12.3661424 15.8638576,12.9795123 16.14,13.46 C16.4161424,13.9404877 17.0295123,14.1061424 17.51,13.83 C19.0531178,12.934321 20.0020198,11.2842223 20.0000032,9.5 C19.9937578,7.29072447 18.5383181,5.34742794 16.42,4.72 Z M7.17,10.72 C5.60918136,12.282556 5.61012025,14.8144069 7.17209736,16.3758049 C8.73407447,17.9372029 11.2659255,17.9372029 12.8279026,16.3758049 C14.3898797,14.8144069 14.3908186,12.282556 12.83,10.72 C11.2592949,9.19481149 8.76740462,9.17279832 7.17,10.67 L7.17,10.72 Z M8,13.5 C8,12.3954305 8.8954305,11.5 10,11.5 C10.172235,11.5022281 10.3435341,11.5257397 10.51,11.57 L8.07,14 C8.0265478,13.8367743 8.00304301,13.668883 8,13.5 L8,13.5 Z M11.41,14.91 C10.9057032,15.4012048 10.1802936,15.5911026 9.5,15.41 L11.93,13 C11.9742603,13.1664659 11.9977719,13.337765 12,13.51 C11.9951334,14.0361048 11.7831557,14.5391028 11.41,14.91 Z" id="Shape"></path>
        </g>
    </g>
</svg>