<?xml version="1.0" encoding="UTF-8"?>
<svg width="24px" height="24px" viewBox="0 0 24 24" version="1.1" xmlns="http://www.w3.org/2000/svg" xmlns:xlink="http://www.w3.org/1999/xlink">

    <g id="Icons/Basic/cloud-database-tree" stroke="none" stroke-width="1" fill-rule="evenodd">
        <g id="cloud-database-tree" transform="translate(1.000000, 1.000000)" >
            <path d="M21.5,13.5 C21.5,12.3954305 20.6045695,11.5 19.5,11.5 L13.5,11.5 C12.3954305,11.5 11.5,12.3954305 11.5,13.5 L8.5,13.5 L8.5,10.5 L10.83,10.5 C12.6249213,10.5029912 14.1571443,9.20390269 14.4477958,7.43266775 C14.7384472,5.66143281 13.7017472,3.9407959 12,3.37 C11.0618347,1.41365186 8.96902512,0.285610069 6.81907429,0.577437965 C4.66912347,0.869265861 2.95273066,2.5143574 2.57,4.65 C1.17114261,5.10976971 0.312749197,6.51679976 0.543932275,7.97101589 C0.775115352,9.42523203 2.02752614,10.4966983 3.5,10.5 L6.5,10.5 L6.5,18.5 C6.5,19.0522847 6.94771525,19.5 7.5,19.5 L11.5,19.5 C11.5,20.6045695 12.3954305,21.5 13.5,21.5 L19.5,21.5 C20.6045695,21.5 21.5,20.6045695 21.5,19.5 L21.5,17.5 C21.4963425,17.1478276 21.3997532,16.8028656 21.22,16.5 C21.3997532,16.1971344 21.4963425,15.8521724 21.5,15.5 L21.5,13.5 Z M3.5,8.5 C2.94771525,8.5 2.5,8.05228475 2.5,7.5 C2.5,6.94771525 2.94771525,6.5 3.5,6.5 C4.05228475,6.5 4.5,6.05228475 4.5,5.5 C4.48333048,4.02578138 5.54031604,2.75794627 6.99347894,2.50911701 C8.44664184,2.26028774 9.8652319,3.10422291 10.34,4.5 C10.4595013,4.84625039 10.758746,5.09945743 11.12,5.16 C11.9322029,5.29444581 12.5210312,6.00701346 12.5,6.83 C12.5,7.75231553 11.7523155,8.5 10.83,8.5 L3.5,8.5 Z M11.5,17.5 L8.5,17.5 L8.5,15.5 L11.5,15.5 C11.5036575,15.8521724 11.6002468,16.1971344 11.78,16.5 C11.6002468,16.8028656 11.5036575,17.1478276 11.5,17.5 Z M13.5,19.5 L13.5,17.5 L19.5,17.5 L19.5,19.5 L13.5,19.5 Z M13.5,15.5 L13.5,13.5 L19.5,13.5 L19.5,15.5 L13.5,15.5 Z" id="Shape"></path>
        </g>
    </g>
</svg>