<?xml version="1.0" encoding="UTF-8"?>
<svg width="24px" height="24px" viewBox="0 0 24 24" version="1.1" xmlns="http://www.w3.org/2000/svg" xmlns:xlink="http://www.w3.org/1999/xlink">

    <g id="Icons/Basic/cog" stroke="none" stroke-width="1" fill-rule="evenodd">
        <g id="cog" transform="translate(2.000000, 2.000000)" >
            <path d="M19.32,7.55 L17.43,6.92 L18.32,5.14 C18.5048974,4.75816814 18.4287403,4.30122558 18.13,3.99999664 L15.9999966,1.87 C15.69702,1.56671443 15.234432,1.49028684 14.85,1.68 L13.07,2.57 L12.44,0.68 C12.3036128,0.276162352 11.926235,0.00316567406 11.4999966,-3.36110655e-06 L8.49999664,-3.36110655e-06 C8.07008409,-0.00110975945 7.68757212,0.272688283 7.55,0.68 L6.92,2.57 L5.14,1.68 C4.75816814,1.49510262 4.30122558,1.57125971 3.99999664,1.87 L1.87,3.99999664 C1.56671443,4.30298 1.49028684,4.76556804 1.68,5.15 L2.57,6.93 L0.68,7.56 C0.276162352,7.69638721 0.00316567406,8.07376497 -3.36110655e-06,8.49999664 L-3.36110655e-06,11.4999966 C-0.00110975945,11.9299159 0.272688283,12.3124279 0.68,12.45 L2.57,13.08 L1.68,14.86 C1.49510262,15.2418319 1.57125971,15.6987744 1.87,15.9999966 L3.99999664,18.13 C4.30298,18.4332856 4.76556804,18.5097132 5.15,18.32 L6.93,17.43 L7.56,19.32 C7.69757212,19.7273117 8.08008409,20.0011098 8.51,19.9999966 L11.51,19.9999966 C11.9399159,20.0011098 12.3224279,19.7273117 12.46,19.32 L13.09,17.43 L14.87,18.32 C15.2492067,18.5001445 15.7005593,18.4242534 15.9999966,18.13 L18.13,15.9999966 C18.4332856,15.69702 18.5097132,15.234432 18.32,14.85 L17.43,13.07 L19.32,12.44 C19.7238376,12.3036128 19.9968343,11.926235 19.9999966,11.4999966 L19.9999966,8.49999664 C20.0011098,8.07008409 19.7273117,7.68757212 19.32,7.55 Z M18,10.78 L16.8,11.18 C16.2415033,11.36116 15.7908226,11.7785815 15.5674616,12.3215799 C15.3441005,12.8645784 15.3706244,13.4782968 15.64,14 L16.21,15.14 L15.11,16.24 L14,15.64 C13.4811213,15.3814899 12.8756042,15.3608379 12.340318,15.5833941 C11.8050318,15.8059504 11.3926475,16.2498159 11.21,16.8 L10.81,18 L9.22,18 L8.82,16.8 C8.63884002,16.2415033 8.2214185,15.7908226 7.67842007,15.5674616 C7.13542164,15.3441005 6.52170319,15.3706244 6,15.64 L4.86,16.21 L3.76,15.11 L4.36,14 C4.62937564,13.4782968 4.6558995,12.8645784 4.43253844,12.3215799 C4.20917738,11.7785815 3.75849666,11.36116 3.2,11.18 L2,10.78 L2,9.22 L3.2,8.82 C3.75849666,8.63884002 4.20917738,8.2214185 4.43253844,7.67842007 C4.6558995,7.13542164 4.62937564,6.52170319 4.36,6 L3.79,4.89 L4.89,3.79 L6,4.36 C6.52170319,4.62937564 7.13542164,4.6558995 7.67842007,4.43253844 C8.2214185,4.20917738 8.63884002,3.75849666 8.82,3.2 L9.22,2 L10.78,2 L11.18,3.2 C11.36116,3.75849666 11.7785815,4.20917738 12.3215799,4.43253844 C12.8645784,4.6558995 13.4782968,4.62937564 14,4.36 L15.14,3.79 L16.24,4.89 L15.64,6 C15.3814899,6.51887874 15.3608379,7.1243958 15.5833941,7.659682 C15.8059504,8.19496821 16.2498159,8.60735252 16.8,8.79 L18,9.19 L18,10.78 Z M10,6 C7.790861,6 6,7.790861 6,10 C6,12.209139 7.790861,14 10,14 C12.209139,14 14,12.209139 14,10 C14,8.93913404 13.5785726,7.92171839 12.8284271,7.17157288 C12.0782816,6.42142736 11.060866,6 10,6 Z M10,12 C8.8954305,12 8,11.1045695 8,10 C8,8.8954305 8.8954305,8 10,8 C11.1045695,8 12,8.8954305 12,10 C12,11.1045695 11.1045695,12 10,12 Z" id="Shape"></path>
        </g>
    </g>
</svg>