<?xml version="1.0" encoding="UTF-8"?>
<svg width="24px" height="24px" viewBox="0 0 24 24" version="1.1" xmlns="http://www.w3.org/2000/svg" xmlns:xlink="http://www.w3.org/1999/xlink">

    <g id="Icons/Basic/comment-alt-download" stroke="none" stroke-width="1"  fill-rule="evenodd">
        <g id="comment-alt-download" transform="translate(2.000000, 2.000000)" >
            <path d="M4.12,9.92 C4.36203988,10.0269768 4.63796012,10.0269768 4.88,9.92 C5.00275132,9.87240561 5.11489629,9.80104063 5.21,9.71 L8.21,6.71 C8.46365858,6.45634143 8.56272353,6.08662601 8.46987805,5.74012196 C8.37703257,5.3936179 8.1063821,5.12296743 7.75987804,5.03012195 C7.41337399,4.93727647 7.04365857,5.03634142 6.79,5.29 L5.5,6.59 L5.5,1 C5.5,0.44771525 5.05228475,0 4.5,0 C3.94771525,0 3.5,0.44771525 3.5,1 L3.5,6.59 L2.21,5.29 C1.95634143,5.03634142 1.58662601,4.93727647 1.24012196,5.03012195 C0.893617901,5.12296743 0.622967425,5.3936179 0.530121947,5.74012196 C0.437276468,6.08662601 0.536341422,6.45634143 0.79,6.71 L3.79,9.71 C3.88510371,9.80104063 3.99724868,9.87240561 4.12,9.92 Z M16.5,4 L11.5,4 C10.9477153,4 10.5,4.44771525 10.5,5 C10.5,5.55228475 10.9477153,6 11.5,6 L16.5,6 C17.0522847,6 17.5,6.44771525 17.5,7 L17.5,16.72 L15.93,15.27 C15.7455769,15.0973348 15.5026349,15.0008725 15.25,15 L6.5,15 C5.94771525,15 5.5,14.5522847 5.5,14 L5.5,13 C5.5,12.4477153 5.05228475,12 4.5,12 C3.94771525,12 3.5,12.4477153 3.5,13 L3.5,14 C3.5,15.6568542 4.84314575,17 6.5,17 L14.86,17 L17.86,19.73 C18.0444231,19.9026652 18.2873651,19.9991275 18.54,20 C18.6771549,19.9985053 18.8128206,19.9713722 18.94,19.92 C19.3055887,19.7604469 19.541389,19.3988865 19.5400061,19 L19.5400061,7 C19.5400061,6.19737134 19.2185159,5.42818456 18.6472257,4.86441132 C18.0759355,4.30063809 17.3025573,3.98929828 16.5,4 Z" id="Shape"></path>
        </g>
    </g>
</svg>