<?xml version="1.0" encoding="UTF-8"?>
<svg width="24px" height="24px" viewBox="0 0 24 24" version="1.1" xmlns="http://www.w3.org/2000/svg" xmlns:xlink="http://www.w3.org/1999/xlink">

    <g id="Icons/Basic/comment-alt-edit" stroke="none" stroke-width="1"  fill-rule="evenodd">
        <g id="comment-alt-edit" transform="translate(2.000000, 2.000000)" >
            <path d="M16.5,3.5 L12.5,3.5 C11.9477153,3.5 11.5,3.94771525 11.5,4.5 C11.5,5.05228475 11.9477153,5.5 12.5,5.5 L16.5,5.5 C17.0522847,5.5 17.5,5.94771525 17.5,6.5 L17.5,16.22 L15.93,14.77 C15.7455769,14.5973348 15.5026349,14.5008725 15.25,14.5 L6.5,14.5 C5.94771525,14.5 5.5,14.0522847 5.5,13.5 L5.5,12.5 C5.5,11.9477153 5.05228475,11.5 4.5,11.5 C3.94771525,11.5 3.5,11.9477153 3.5,12.5 L3.5,13.5 C3.5,15.1568542 4.84314575,16.5 6.5,16.5 L14.86,16.5 L17.86,19.23 C18.0444231,19.4026652 18.2873651,19.4991275 18.54,19.5 C18.6771549,19.4985053 18.8128206,19.4713722 18.94,19.42 C19.3055887,19.2604469 19.541389,18.8988865 19.5400061,18.5 L19.5400061,6.5 C19.5400061,5.69737134 19.2185159,4.92818456 18.6472257,4.36441132 C18.0759355,3.80063809 17.3025573,3.48929828 16.5,3.5 Z M7.08,10.5000167 L9.5,10.5000167 C10.0522847,10.5000167 10.5000167,10.0522847 10.5000167,9.5 L10.5000167,7.08 C10.5015368,6.81419702 10.3971865,6.55871883 10.21,6.37 L4.63,0.79 C4.23996255,0.402276405 3.61003745,0.402276405 3.22,0.79 L0.79,3.22 C0.402276405,3.61003745 0.402276405,4.23996255 0.79,4.63 L6.37,10.21 C6.55871883,10.3971865 6.81419702,10.5015368 7.08,10.5000167 Z M3.92,2.91 L8.5,7.49 L8.5,8.49 L7.5,8.49 L2.91,3.92 L3.92,2.91 Z" id="Shape"></path>
        </g>
    </g>
</svg>