<?xml version="1.0" encoding="UTF-8"?>
<svg width="24px" height="24px" viewBox="0 0 24 24" version="1.1" xmlns="http://www.w3.org/2000/svg" xmlns:xlink="http://www.w3.org/1999/xlink">

    <g id="Icons/Basic/comment-alt-dots" stroke="none" stroke-width="1"  fill-rule="evenodd">
        <g id="comment-alt-dots" transform="translate(2.000000, 2.000000)" >
            <path d="M10,7 C9.44771525,7 9,7.44771525 9,8 C9,8.55228475 9.44771525,9 10,9 C10.5522847,9 11,8.55228475 11,8 C11,7.44771525 10.5522847,7 10,7 Z M17,-4.4408921e-16 L3,-4.4408921e-16 C1.34314575,-4.4408921e-16 -4.4408921e-16,1.34314575 -4.4408921e-16,3 L-4.4408921e-16,13 C-4.4408921e-16,14.6568542 1.34314575,16 3,16 L14.59,16 L18.29,19.71 C18.4787188,19.8971865 18.734197,20.0015368 19,20 C19.1311765,20.0033801 19.2613206,19.9759814 19.38,19.92 C19.7534255,19.7665964 19.9979849,19.4037019 20,19 L20,3 C20,1.34314575 18.6568542,-4.4408921e-16 17,-4.4408921e-16 Z M18,16.59 L15.71,14.29 C15.5212812,14.1028135 15.265803,13.9984632 15,14 L3,14 C2.44771525,14 2,13.5522847 2,13 L2,3 C2,2.44771525 2.44771525,2 3,2 L17,2 C17.5522847,2 18,2.44771525 18,3 L18,16.59 Z M6,7 C5.44771525,7 5,7.44771525 5,8 C5,8.55228475 5.44771525,9 6,9 C6.55228475,9 7,8.55228475 7,8 C7,7.44771525 6.55228475,7 6,7 Z M14,7 C13.4477153,7 13,7.44771525 13,8 C13,8.55228475 13.4477153,9 14,9 C14.5522847,9 15,8.55228475 15,8 C15,7.44771525 14.5522847,7 14,7 Z" id="Shape"></path>
        </g>
    </g>
</svg>