<?xml version="1.0" encoding="UTF-8"?>
<svg width="24px" height="24px" viewBox="0 0 24 24" version="1.1" xmlns="http://www.w3.org/2000/svg" xmlns:xlink="http://www.w3.org/1999/xlink">

    <g id="Icons/Basic/copy-alt" stroke="none" stroke-width="1" fill-rule="evenodd">
        <g id="copy-alt" transform="translate(3.000000, 2.000000)" >
            <path d="M13,18 L5,18 C3.34314575,18 2,16.6568542 2,15 L2,5 C2,4.44771525 1.55228475,4 1,4 C0.44771525,4 0,4.44771525 0,5 L0,15 C0,17.7614237 2.23857625,20 5,20 L13,20 C13.5522847,20 14,19.5522847 14,19 C14,18.4477153 13.5522847,18 13,18 Z M18,6.94 C17.9895837,6.8481349 17.9694716,6.75763058 17.94,6.67 L17.94,6.58 C17.8919189,6.47717975 17.8277838,6.38266483 17.75,6.3 L17.75,6.3 L11.75,0.3 L11.75,0.3 C11.6673352,0.222216205 11.5728202,0.158081081 11.47,0.11 L11.38,0.11 L11.06,0 L7,0 C5.34314575,0 4,1.34314575 4,3 L4,13 C4,14.6568542 5.34314575,16 7,16 L15,16 C16.6568542,16 18,14.6568542 18,13 L18,7 C18,7 18,7 18,6.94 Z M12,3.41 L14.59,6 L13,6 C12.4477153,6 12,5.55228475 12,5 L12,3.41 Z M16,13 C16,13.5522847 15.5522847,14 15,14 L7,14 C6.44771525,14 6,13.5522847 6,13 L6,3 C6,2.44771525 6.44771525,2 7,2 L10,2 L10,5 C10,6.65685425 11.3431458,8 13,8 L16,8 L16,13 Z" id="Shape"></path>
        </g>
    </g>
</svg>