<?xml version="1.0" encoding="UTF-8"?>
<svg width="24px" height="24px" viewBox="0 0 24 24" version="1.1" xmlns="http://www.w3.org/2000/svg" xmlns:xlink="http://www.w3.org/1999/xlink">

    <g id="Icons/Basic/database" stroke="none" stroke-width="1" fill-rule="evenodd">
        <g id="database" transform="translate(4.000000, 2.000000)" >
            <path d="M4,14.5 C3.44771525,14.5 3,14.9477153 3,15.5 C3,16.0522847 3.44771525,16.5 4,16.5 C4.55228475,16.5 5,16.0522847 5,15.5 C5,14.9477153 4.55228475,14.5 4,14.5 Z M8,0 C4,0 0,1.37 0,4 L0,16 C0,18.63 4,20 8,20 C12,20 16,18.63 16,16 L16,4 C16,1.37 12,0 8,0 Z M14,16 C14,16.71 11.72,18 8,18 C4.28,18 2,16.71 2,16 L2,12.73 C3.87206986,13.6199577 5.92789152,14.0551066 8,14 C10.0721085,14.0551066 12.1279301,13.6199577 14,12.73 L14,16 Z M14,10 C14,10.71 11.72,12 8,12 C4.28,12 2,10.71 2,10 L2,6.73 C3.87206986,7.61995771 5.92789152,8.05510663 8,8 C10.0721085,8.05510663 12.1279301,7.61995771 14,6.73 L14,10 Z M8,6 C4.28,6 2,4.71 2,4 C2,3.29 4.28,2 8,2 C11.72,2 14,3.29 14,4 C14,4.71 11.72,6 8,6 Z M4,8.5 C3.44771525,8.5 3,8.94771525 3,9.5 C3,10.0522847 3.44771525,10.5 4,10.5 C4.55228475,10.5 5,10.0522847 5,9.5 C5,8.94771525 4.55228475,8.5 4,8.5 Z" id="Shape"></path>
        </g>
    </g>
</svg>