<?xml version="1.0" encoding="UTF-8"?>
<svg width="24px" height="24px" viewBox="0 0 24 24" version="1.1" xmlns="http://www.w3.org/2000/svg" xmlns:xlink="http://www.w3.org/1999/xlink">

    <g id="Icons/Basic/document" stroke="none" stroke-width="1" fill-rule="evenodd">
        <g id="document" transform="translate(4.000000, 2.000000)" >
            <path d="M8,12 C7.44771525,12 7,12.4477153 7,13 L7,15 C7,15.5522847 7.44771525,16 8,16 C8.55228475,16 9,15.5522847 9,15 L9,13 C9,12.4477153 8.55228475,12 8,12 Z M8.38,9.08 C8.19897782,8.99606553 7.99698494,8.96820445 7.8,9 L7.62,9.06 L7.44,9.15 L7.29,9.27 C7.09781093,9.4635931 6.99305164,9.72729752 7,10 C6.99846324,10.265803 7.10281349,10.5212812 7.29,10.71 C7.38510371,10.8010406 7.49724868,10.8724056 7.62,10.92 C7.73867938,10.9759814 7.86882347,11.0033801 8,11 C8.26580298,11.0015368 8.52128117,10.8971865 8.71,10.71 C8.89718651,10.5212812 9.00153676,10.265803 9.00001674,10 C9.00153676,9.73419702 8.89718651,9.47871883 8.71,9.29 C8.61279906,9.20166906 8.50118489,9.13064187 8.38,9.08 Z M16,6.94 C15.9895837,6.8481349 15.9694716,6.75763058 15.94,6.67 L15.94,6.58 C15.8919189,6.47717975 15.8277838,6.38266483 15.75,6.3 L15.75,6.3 L9.75,0.3 L9.75,0.3 C9.66733517,0.222216205 9.57282025,0.158081081 9.47,0.11 L9.37,0.11 C9.27276401,0.0580031503 9.16826255,0.0209219889 9.06,-2.22044605e-16 L3,-2.22044605e-16 C1.34314575,-2.22044605e-16 -8.8817842e-16,1.34314575 -8.8817842e-16,3 L-8.8817842e-16,17 C-8.8817842e-16,18.6568542 1.34314575,20 3,20 L13,20 C14.6568542,20 16,18.6568542 16,17 L16,7 C16,7 16,7 16,6.94 Z M10,3.41 L12.59,6 L11,6 C10.4477153,6 10,5.55228475 10,5 L10,3.41 Z M14,17 C14,17.5522847 13.5522847,18 13,18 L3,18 C2.44771525,18 2,17.5522847 2,17 L2,3 C2,2.44771525 2.44771525,2 3,2 L8,2 L8,5 C8,6.65685425 9.34314575,8 11,8 L14,8 L14,17 Z" id="Shape"></path>
        </g>
    </g>
</svg>