<?xml version="1.0" encoding="UTF-8"?>
<svg width="24px" height="24px" viewBox="0 0 24 24" version="1.1" xmlns="http://www.w3.org/2000/svg" xmlns:xlink="http://www.w3.org/1999/xlink">

    <g id="Icons/Basic/down-arrow" stroke="none" stroke-width="1"  fill-rule="evenodd">
        <g id="down-arrow" transform="translate(2.000000, 2.000000)" >
            <path d="M19,12 C18.4477153,12 18,12.4477153 18,13 L18,17 C18,17.5522847 17.5522847,18 17,18 L3,18 C2.44771525,18 2,17.5522847 2,17 L2,13 C2,12.4477153 1.55228475,12 1,12 C0.44771525,12 0,12.4477153 0,13 L0,17 C0,18.6568542 1.34314575,20 3,20 L17,20 C18.6568542,20 20,18.6568542 20,17 L20,13 C20,12.4477153 19.5522847,12 19,12 Z M9.29,13.71 C9.38510371,13.8010406 9.49724868,13.8724056 9.62,13.92 C9.86203988,14.0269768 10.1379601,14.0269768 10.38,13.92 C10.5027513,13.8724056 10.6148963,13.8010406 10.71,13.71 L14.71,9.71 C15.1021222,9.31787783 15.1021222,8.68212218 14.71,8.29000001 C14.3178778,7.89787784 13.6821222,7.89787784 13.29,8.29 L11,10.59 L11,1 C11,0.44771525 10.5522847,0 10,0 C9.44771525,0 9,0.44771525 9,1 L9,10.59 L6.71,8.29 C6.45634143,8.03634142 6.08662601,7.93727646 5.74012195,8.03012194 C5.3936179,8.12296742 5.12296742,8.3936179 5.03012194,8.74012195 C4.93727646,9.08662601 5.03634142,9.45634143 5.29,9.71 L9.29,13.71 Z" id="Shape"></path>
        </g>
    </g>
</svg>