<?xml version="1.0" encoding="UTF-8"?>
<svg width="24px" height="24px" viewBox="0 0 24 24" version="1.1" xmlns="http://www.w3.org/2000/svg" xmlns:xlink="http://www.w3.org/1999/xlink">

    <g id="Icons/Basic/edit" stroke="none" stroke-width="1"  fill-rule="evenodd">
        <g id="edit" transform="translate(2.000000, 1.000000)" >
            <path d="M19,11 C18.4477153,11 18,11.4477153 18,12 L18,18 C18,18.5522847 17.5522847,19 17,19 L3,19 C2.44771525,19 2,18.5522847 2,18 L2,4 C2,3.44771525 2.44771525,3 3,3 L9,3 C9.55228475,3 10,2.55228475 10,2 C10,1.44771525 9.55228475,1 9,1 L3,1 C1.34314575,1 -4.4408921e-16,2.34314575 -4.4408921e-16,4 L-4.4408921e-16,18 C-4.4408921e-16,19.6568542 1.34314575,21 3,21 L17,21 C18.6568542,21 20,19.6568542 20,18 L20,12 C20,11.4477153 19.5522847,11 19,11 Z M3.99998326,11.76 L3.99998326,16 C3.99998326,16.5522847 4.44771525,17.0000167 5,17.0000167 L9.24,17.0000167 C9.50580298,17.0015368 9.76128117,16.8971865 9.95,16.71 L16.87,9.78 L16.87,9.78 L19.71,7 C19.8993127,6.8122334 20.0057983,6.55663754 20.0057983,6.29 C20.0057983,6.02336246 19.8993127,5.7677666 19.71,5.58 L15.47,1.29 C15.2822334,1.10068735 15.0266375,0.994201676 14.76,0.994201676 C14.4933625,0.994201676 14.2377666,1.10068735 14.05,1.29 L11.23,4.12 L11.23,4.12 L4.29,11.05 C4.10281349,11.2387188 3.99846324,11.4942017 3.99998326,11.76 Z M14.76,3.41 L17.59,6.24 L16.17,7.66 L13.34,4.83 L14.76,3.41 Z M6,12.17 L11.93,6.24 L14.76,9.07 L8.83,15 L6,15 L6,12.17 Z" id="Shape"></path>
        </g>
    </g>
</svg>