<?xml version="1.0" encoding="UTF-8"?>
<svg width="24px" height="24px" viewBox="0 0 24 24" version="1.1" xmlns="http://www.w3.org/2000/svg" xmlns:xlink="http://www.w3.org/1999/xlink">

    <g id="Icons/Basic/ellipsis-h" stroke="none" stroke-width="1"  fill-rule="evenodd">
        <g id="ellipsis-h" transform="translate(3.000000, 11.000000)" >
            <path d="M9,0 C7.8954305,0 7,0.8954305 7,2 C7,3.1045695 7.8954305,4 9,4 C10.1045695,4 11,3.1045695 11,2 C11,0.8954305 10.1045695,0 9,0 Z M2,0 C0.8954305,0 0,0.8954305 0,2 C0,3.1045695 0.8954305,4 2,4 C3.1045695,4 4,3.1045695 4,2 C4,0.8954305 3.1045695,0 2,0 Z M16,0 C14.8954305,0 14,0.8954305 14,2 C14,3.1045695 14.8954305,4 16,4 C17.1045695,4 18,3.1045695 18,2 C18,0.8954305 17.1045695,0 16,0 Z" id="Shape"></path>
        </g>
    </g>
</svg>