<?xml version="1.0" encoding="UTF-8"?>
<svg width="24px" height="24px" viewBox="0 0 24 24" version="1.1" xmlns="http://www.w3.org/2000/svg" xmlns:xlink="http://www.w3.org/1999/xlink">

    <g id="Icons/Basic/entry" stroke="none" stroke-width="1"  fill-rule="evenodd">
        <g id="entry" transform="translate(4.000000, 2.000000)" >
            <path d="M16,10 C16,9.44771525 15.5522847,9 15,9 L7.41,9 L9.71,6.71 C9.96365858,6.45634143 10.0627235,6.08662601 9.96987806,5.74012195 C9.87703258,5.3936179 9.6063821,5.12296742 9.25987805,5.03012194 C8.91337399,4.93727646 8.54365857,5.03634142 8.29,5.29 L4.29,9.29 C4.19895937,9.38510371 4.12759439,9.49724868 4.08,9.62 C3.97998198,9.86346136 3.97998198,10.1365386 4.08,10.38 C4.12759439,10.5027513 4.19895937,10.6148963 4.29,10.71 L8.29,14.71 C8.4777666,14.8993127 8.73336246,15.0057983 9,15.0057983 C9.26663754,15.0057983 9.5222334,14.8993127 9.71,14.71 C9.89931265,14.5222334 10.0057983,14.2666375 10.0057983,14 C10.0057983,13.7333625 9.89931265,13.4777666 9.71,13.29 L7.41,11 L15,11 C15.5522847,11 16,10.5522847 16,10 Z M13,-4.4408921e-16 L3,-4.4408921e-16 C1.34314575,-4.4408921e-16 -8.8817842e-16,1.34314575 -8.8817842e-16,3 L-8.8817842e-16,17 C-8.8817842e-16,18.6568542 1.34314575,20 3,20 L13,20 C14.6568542,20 16,18.6568542 16,17 L16,14 C16,13.4477153 15.5522847,13 15,13 C14.4477153,13 14,13.4477153 14,14 L14,17 C14,17.5522847 13.5522847,18 13,18 L3,18 C2.44771525,18 2,17.5522847 2,17 L2,3 C2,2.44771525 2.44771525,2 3,2 L13,2 C13.5522847,2 14,2.44771525 14,3 L14,6 C14,6.55228475 14.4477153,7 15,7 C15.5522847,7 16,6.55228475 16,6 L16,3 C16,1.34314575 14.6568542,-4.4408921e-16 13,-4.4408921e-16 Z" id="Shape"></path>
        </g>
    </g>
</svg>