<?xml version="1.0" encoding="UTF-8"?>
<svg width="24px" height="24px" viewBox="0 0 24 24" version="1.1" xmlns="http://www.w3.org/2000/svg" xmlns:xlink="http://www.w3.org/1999/xlink">

    <g id="Icons/Basic/envelope-alt" stroke="none" stroke-width="1"  fill-rule="evenodd">
        <g id="envelope-alt" transform="translate(2.000000, 4.000000)" >
            <path d="M17,-8.8817842e-16 L3,-8.8817842e-16 C1.34314575,-8.8817842e-16 -4.4408921e-16,1.34314575 -4.4408921e-16,3 L-4.4408921e-16,13 C-4.4408921e-16,14.6568542 1.34314575,16 3,16 L17,16 C18.6568542,16 20,14.6568542 20,13 L20,3 C20,1.34314575 18.6568542,-8.8817842e-16 17,-8.8817842e-16 Z M3,2 L17,2 C17.5522847,2 18,2.44771525 18,3 L10,7.88 L2,3 C2,2.44771525 2.44771525,2 3,2 Z M18,13 C18,13.5522847 17.5522847,14 17,14 L3,14 C2.44771525,14 2,13.5522847 2,13 L2,5.28 L9.48,9.85 C9.78940108,10.0286328 10.1705989,10.0286328 10.48,9.85 L18,5.28 L18,13 Z" id="Shape"></path>
        </g>
    </g>
</svg>