<?xml version="1.0" encoding="UTF-8"?>
<svg width="24px" height="24px" viewBox="0 0 24 24" version="1.1" xmlns="http://www.w3.org/2000/svg" xmlns:xlink="http://www.w3.org/1999/xlink">

    <g id="Icons/Basic/exclamation-octagon" stroke="none" stroke-width="1"  fill-rule="evenodd">
        <g id="exclamation-octagon" transform="translate(2.000000, 2.000000)" >
            <path d="M10,5 C9.44771525,5 9,5.44771525 9,6 L9,10 C9,10.5522847 9.44771525,11 10,11 C10.5522847,11 11,10.5522847 11,10 L11,6 C11,5.44771525 10.5522847,5 10,5 Z M10,13 C9.44771525,13 9,13.4477153 9,14 C9,14.5522847 9.44771525,15 10,15 C10.5522847,15 11,14.5522847 11,14 C11,13.4477153 10.5522847,13 10,13 Z M19.71,5.56 L14.44,0.29 C14.2483662,0.107266274 13.994767,0.0036834894 13.73,0 L6.27,0 C6.00523302,0.0036834894 5.75163379,0.107266274 5.56,0.29 L0.29,5.56 C0.107266274,5.75163379 0.0036834894,6.00523302 0,6.27 L0,13.73 C0.0036834894,13.994767 0.107266274,14.2483662 0.29,14.44 L5.56,19.71 C5.75163379,19.8927337 6.00523302,19.9963165 6.27,20 L13.73,20 C13.994767,19.9963165 14.2483662,19.8927337 14.44,19.71 L19.71,14.44 C19.8927337,14.2483662 19.9963165,13.994767 20,13.73 L20,6.27 C19.9963165,6.00523302 19.8927337,5.75163379 19.71,5.56 Z M18,13.31 L13.31,18 L6.69,18 L2,13.31 L2,6.69 L6.69,2 L13.31,2 L18,6.69 L18,13.31 Z" id="Shape"></path>
        </g>
    </g>
</svg>