<?xml version="1.0" encoding="UTF-8"?>
<svg width="24px" height="24px" viewBox="0 0 24 24" version="1.1" xmlns="http://www.w3.org/2000/svg" xmlns:xlink="http://www.w3.org/1999/xlink">

    <g id="Icons/Basic/exclamation-circle" stroke="none" stroke-width="1"  fill-rule="evenodd">
        <g id="exclamation-circle" transform="translate(2.000000, 2.000000)" >
            <path d="M10,5 C9.44771525,5 9,5.44771525 9,6 L9,10 C9,10.5522847 9.44771525,11 10,11 C10.5522847,11 11,10.5522847 11,10 L11,6 C11,5.44771525 10.5522847,5 10,5 Z M10.92,13.62 C10.8981117,13.5562757 10.8678464,13.4957452 10.83,13.44 L10.71,13.29 C10.4224393,13.0062554 9.9923971,12.9234033 9.62,13.08 C9.49881511,13.1306419 9.38720094,13.2016691 9.29,13.29 C9.10281349,13.4787188 8.99846324,13.734197 8.99998326,14 C9.00157999,14.1306773 9.02875903,14.2597777 9.08,14.38 C9.1709238,14.6312303 9.36876974,14.8290762 9.62,14.92 C9.86203988,15.0269768 10.1379601,15.0269768 10.38,14.92 C10.6312303,14.8290762 10.8290762,14.6312303 10.92,14.38 C10.971241,14.2597777 10.99842,14.1306773 11,14 C11.0049086,13.9334237 11.0049086,13.8665763 11,13.8 C10.9827817,13.7362312 10.9557955,13.6755122 10.92,13.62 L10.92,13.62 Z M10,-4.4408921e-16 C4.4771525,-4.4408921e-16 1.77635684e-15,4.4771525 1.77635684e-15,10 C1.77635684e-15,15.5228475 4.4771525,20 10,20 C15.5228475,20 20,15.5228475 20,10 C20,7.3478351 18.9464316,4.80429597 17.0710678,2.92893219 C15.195704,1.0535684 12.6521649,-4.4408921e-16 10,-4.4408921e-16 Z M10,18 C5.581722,18 2,14.418278 2,10 C2,5.581722 5.581722,2 10,2 C14.418278,2 18,5.581722 18,10 C18,12.1217319 17.1571453,14.1565632 15.6568542,15.6568542 C14.1565632,17.1571453 12.1217319,18 10,18 Z" id="Shape"></path>
        </g>
    </g>
</svg>