<?xml version="1.0" encoding="UTF-8"?>
<svg width="24px" height="24px" viewBox="0 0 24 24" version="1.1" xmlns="http://www.w3.org/2000/svg" xmlns:xlink="http://www.w3.org/1999/xlink">

    <g id="Icons/Basic/eye-slash" stroke="none" stroke-width="1"  fill-rule="evenodd">
        <g id="eye-slash" transform="translate(1.000000, 1.000000)">
            <path d="M9.94,5.08 C10.2907639,5.02623324 10.6451396,4.99948791 11,5 C14.18,5 17.17,7.29 18.91,11 C18.6438891,11.5645923 18.3433222,12.1122919 18.01,12.64 C17.9041777,12.8038098 17.8485624,12.9949873 17.85,13.19 C17.8545776,13.638491 18.1572094,14.0290749 18.5903469,14.1455097 C19.0234843,14.2619445 19.4811652,14.0757457 19.71,13.69 C20.1759266,12.95793 20.5806338,12.1886518 20.92,11.39 C21.0284252,11.1378274 21.0284252,10.8521726 20.92,10.6 C18.9,5.91 15.1,2.99990136 11,2.99990136 C10.5306669,2.9976351 10.0620847,3.03779929 9.6,3.12 C9.2427344,3.18073514 8.94500919,3.42745566 8.81897458,3.76722432 C8.69293996,4.10699297 8.7577436,4.48819082 8.98897458,4.76722433 C9.22020556,5.04625783 9.58273441,5.18073516 9.94,5.12 L9.94,5.08 Z M2.71,1.29 C2.45634143,1.03634143 2.08662601,0.937276483 1.74012196,1.03012196 C1.39361791,1.12296744 1.12296744,1.39361791 1.03012196,1.74012196 C0.937276483,2.08662601 1.03634143,2.45634143 1.29,2.71 L4.39,5.8 C2.97557308,7.16152828 1.84985681,8.79398692 1.08,10.6 C0.968686852,10.8550505 0.968686852,11.1449495 1.08,11.4 C3.1,16.09 6.9,19 11,19 C12.7971076,18.9875864 14.5517705,18.4525011 16.05,17.46 L19.29,20.71 C19.4777666,20.8993127 19.7333625,21.0057983 20,21.0057983 C20.2666375,21.0057983 20.5222334,20.8993127 20.71,20.71 C20.8993127,20.5222334 21.0057983,20.2666375 21.0057983,20 C21.0057983,19.7333625 20.8993127,19.4777666 20.71,19.29 L2.71,1.29 Z M9.07,10.48 L11.52,12.93 C11.3509866,12.9784661 11.1758132,13.0020472 11,13 C9.8954305,13 9,12.1045695 9,11 C8.99795283,10.8241868 9.02153387,10.6490134 9.07,10.48 L9.07,10.48 Z M11,17 C7.82,17 4.83,14.71 3.1,11 C3.74608887,9.57374827 4.66307117,8.28657682 5.8,7.21 L7.57,9 C6.71601758,10.5586149 6.99283089,12.4937785 8.24952622,13.7504738 C9.50622154,15.0071691 11.4413851,15.2839824 13,14.43 L14.59,16 C13.501093,16.6408815 12.2634245,16.985636 11,17 Z" id="Shape"></path>
        </g>
    </g>
</svg>