<?xml version="1.0" encoding="UTF-8"?>
<svg width="24px" height="24px" viewBox="0 0 24 24" version="1.1" xmlns="http://www.w3.org/2000/svg" xmlns:xlink="http://www.w3.org/1999/xlink">

    <g id="Icons/Basic/file-download" stroke="none" stroke-width="1"  fill-rule="evenodd">
        <g id="file-download" transform="translate(4.000000, 2.000000)" >
            <path d="M16,6.94 C15.9895837,6.8481349 15.9694716,6.75763058 15.94,6.67 L15.94,6.58 C15.8919189,6.47717975 15.8277838,6.38266483 15.75,6.3 L15.75,6.3 L9.75,0.3 L9.75,0.3 C9.66733517,0.222216205 9.57282025,0.158081081 9.47,0.11 L9.37,0.11 C9.27276401,0.0580031503 9.16826255,0.0209219889 9.06,-2.22044605e-16 L3,-2.22044605e-16 C1.34314575,-2.22044605e-16 -8.8817842e-16,1.34314575 -8.8817842e-16,3 L-8.8817842e-16,17 C-8.8817842e-16,18.6568542 1.34314575,20 3,20 L13,20 C14.6568542,20 16,18.6568542 16,17 L16,7 C16,7 16,7 16,6.94 Z M10,3.41 L12.59,6 L11,6 C10.4477153,6 10,5.55228475 10,5 L10,3.41 Z M14,17 C14,17.5522847 13.5522847,18 13,18 L3,18 C2.44771525,18 2,17.5522847 2,17 L2,3 C2,2.44771525 2.44771525,2 3,2 L8,2 L8,5 C8,6.65685425 9.34314575,8 11,8 L14,8 L14,17 Z M9.29,12.29 L9,12.59 L9,10 C9,9.44771525 8.55228475,9 8,9 C7.44771525,9 7,9.44771525 7,10 L7,12.59 L6.71,12.29 C6.31787783,11.8978778 5.68212217,11.8978778 5.29,12.29 C4.89787783,12.6821222 4.89787783,13.3178778 5.29,13.71 L7.29,15.71 C7.38510371,15.8010406 7.49724868,15.8724056 7.62,15.92 C7.86203988,16.0269768 8.13796012,16.0269768 8.38,15.92 C8.50275132,15.8724056 8.61489629,15.8010406 8.71,15.71 L10.71,13.71 C11.1021222,13.3178778 11.1021222,12.6821222 10.71,12.29 C10.3178778,11.8978778 9.68212217,11.8978778 9.29,12.29 L9.29,12.29 Z" id="Shape"></path>
        </g>
    </g>
</svg>