<?xml version="1.0" encoding="UTF-8"?>
<svg width="24px" height="24px" viewBox="0 0 24 24" version="1.1" xmlns="http://www.w3.org/2000/svg" xmlns:xlink="http://www.w3.org/1999/xlink">

    <g id="Icons/Basic/file-check-alt" stroke="none" stroke-width="1"  fill-rule="evenodd">
        <g id="file-check-alt" transform="translate(2.000000, 2.000000)">
            <path d="M9.5,18 L3.5,18 C2.94771525,18 2.5,17.5522847 2.5,17 L2.5,3 C2.5,2.44771525 2.94771525,2 3.5,2 L8.5,2 L8.5,5 C8.5,6.65685425 9.84314575,8 11.5,8 L14.5,8 L14.5,13 C14.5,13.5522847 14.9477153,14 15.5,14 C16.0522847,14 16.5,13.5522847 16.5,13 L16.5,7 C16.5,7 16.5,7 16.5,6.94 C16.4895837,6.8481349 16.4694716,6.75763058 16.44,6.67 L16.44,6.58 C16.3919189,6.47717975 16.3277838,6.38266483 16.25,6.3 L16.25,6.3 L10.25,0.3 L10.25,0.3 C10.1673352,0.222216205 10.0728202,0.158081081 9.97,0.11 C9.93691814,0.104209516 9.90308186,0.104209516 9.87,0.11 C9.77276401,0.0580031503 9.66826255,0.0209219889 9.56,-2.22044605e-16 L3.5,-2.22044605e-16 C1.84314575,-2.22044605e-16 0.5,1.34314575 0.5,3 L0.5,17 C0.5,18.6568542 1.84314575,20 3.5,20 L9.5,20 C10.0522847,20 10.5,19.5522847 10.5,19 C10.5,18.4477153 10.0522847,18 9.5,18 Z M10.5,3.41 L13.09,6 L11.5,6 C10.9477153,6 10.5,5.55228475 10.5,5 L10.5,3.41 Z M5.5,12 L11.5,12 C12.0522847,12 12.5,11.5522847 12.5,11 C12.5,10.4477153 12.0522847,10 11.5,10 L5.5,10 C4.94771525,10 4.5,10.4477153 4.5,11 C4.5,11.5522847 4.94771525,12 5.5,12 Z M9.5,14 L5.5,14 C4.94771525,14 4.5,14.4477153 4.5,15 C4.5,15.5522847 4.94771525,16 5.5,16 L9.5,16 C10.0522847,16 10.5,15.5522847 10.5,15 C10.5,14.4477153 10.0522847,14 9.5,14 Z M5.5,8 L6.5,8 C7.05228475,8 7.5,7.55228475 7.5,7 C7.5,6.44771525 7.05228475,6 6.5,6 L5.5,6 C4.94771525,6 4.5,6.44771525 4.5,7 C4.5,7.55228475 4.94771525,8 5.5,8 Z M19.21,14.29 C19.0222334,14.1006873 18.7666375,13.9942017 18.5,13.9942017 C18.2333625,13.9942017 17.9777666,14.1006873 17.79,14.29 L14.5,17.59 L13.21,16.29 C12.9563414,16.0363414 12.586626,15.9372765 12.240122,16.030122 C11.8936179,16.1229674 11.6229674,16.3936179 11.530122,16.740122 C11.4372765,17.086626 11.5363414,17.4563414 11.79,17.71 L13.79,19.71 C13.9777666,19.8993127 14.2333625,20.0057983 14.5,20.0057983 C14.7666375,20.0057983 15.0222334,19.8993127 15.21,19.71 L19.21,15.71 C19.3993127,15.5222334 19.5057983,15.2666375 19.5057983,15 C19.5057983,14.7333625 19.3993127,14.4777666 19.21,14.29 Z" id="Shape"></path>
        </g>
    </g>
</svg>