<?xml version="1.0" encoding="UTF-8"?>
<svg width="24px" height="24px" viewBox="0 0 24 24" version="1.1" xmlns="http://www.w3.org/2000/svg" xmlns:xlink="http://www.w3.org/1999/xlink">

    <g id="Icons/Basic/file-times" stroke="none" stroke-width="1"  fill-rule="evenodd">
        <g id="file-times" transform="translate(4.000000, 2.000000)" >
            <path d="M10.71,10.29 C10.5222334,10.1006873 10.2666375,9.99420168 10,9.99420168 C9.73336246,9.99420168 9.4777666,10.1006873 9.29,10.29 L8,11.59 L6.71,10.29 C6.31787783,9.89787784 5.68212218,9.89787784 5.29000001,10.29 C4.89787784,10.6821222 4.89787784,11.3178778 5.29,11.71 L6.59,13 L5.29,14.29 C5.10068735,14.4777666 4.99420168,14.7333625 4.99420168,15 C4.99420168,15.2666375 5.10068735,15.5222334 5.29,15.71 C5.4777666,15.8993127 5.73336246,16.0057983 6,16.0057983 C6.26663754,16.0057983 6.5222334,15.8993127 6.71,15.71 L8,14.41 L9.29,15.71 C9.4777666,15.8993127 9.73336246,16.0057983 10,16.0057983 C10.2666375,16.0057983 10.5222334,15.8993127 10.71,15.71 C10.8993127,15.5222334 11.0057983,15.2666375 11.0057983,15 C11.0057983,14.7333625 10.8993127,14.4777666 10.71,14.29 L9.41,13 L10.71,11.71 C10.8993127,11.5222334 11.0057983,11.2666375 11.0057983,11 C11.0057983,10.7333625 10.8993127,10.4777666 10.71,10.29 Z M16,6.94 C15.9895837,6.8481349 15.9694716,6.75763058 15.94,6.67 L15.94,6.58 C15.8919189,6.47717975 15.8277838,6.38266483 15.75,6.3 L15.75,6.3 L9.75,0.3 L9.75,0.3 C9.66733517,0.222216205 9.57282025,0.158081081 9.47,0.11 L9.37,0.11 C9.27276401,0.0580031503 9.16826255,0.0209219889 9.06,-2.22044605e-16 L3,-2.22044605e-16 C1.34314575,-2.22044605e-16 -8.8817842e-16,1.34314575 -8.8817842e-16,3 L-8.8817842e-16,17 C-8.8817842e-16,18.6568542 1.34314575,20 3,20 L13,20 C14.6568542,20 16,18.6568542 16,17 L16,7 C16,7 16,7 16,6.94 Z M10,3.41 L12.59,6 L11,6 C10.4477153,6 10,5.55228475 10,5 L10,3.41 Z M14,17 C14,17.5522847 13.5522847,18 13,18 L3,18 C2.44771525,18 2,17.5522847 2,17 L2,3 C2,2.44771525 2.44771525,2 3,2 L8,2 L8,5 C8,6.65685425 9.34314575,8 11,8 L14,8 L14,17 Z" id="Shape"></path>
        </g>
    </g>
</svg>