<?xml version="1.0" encoding="UTF-8"?>
<svg width="24px" height="24px" viewBox="0 0 24 24" version="1.1" xmlns="http://www.w3.org/2000/svg" xmlns:xlink="http://www.w3.org/1999/xlink">

    <g id="Icons/Basic/file-block-alt" stroke="none" stroke-width="1"  fill-rule="evenodd">
        <g id="file-block-alt" transform="translate(3.000000, 2.000000)" >
            <path d="M5,6 C4.44771525,6 4,6.44771525 4,7 C4,7.55228475 4.44771525,8 5,8 L6,8 C6.55228475,8 7,7.55228475 7,7 C7,6.44771525 6.55228475,6 6,6 L5,6 Z M10,18 L3,18 C2.44771525,18 2,17.5522847 2,17 L2,3 C2,2.44771525 2.44771525,2 3,2 L8,2 L8,5 C8,6.65685425 9.34314575,8 11,8 L14,8 L14,9 C14,9.55228475 14.4477153,10 15,10 C15.5522847,10 16,9.55228475 16,9 L16,7 C16,7 16,7 16,6.94 C15.9895837,6.8481349 15.9694716,6.75763058 15.94,6.67 L15.94,6.58 C15.8919189,6.47717975 15.8277838,6.38266483 15.75,6.3 L15.75,6.3 L9.75,0.3 L9.75,0.3 C9.66733517,0.222216205 9.57282025,0.158081081 9.47,0.11 C9.4401498,0.105760184 9.4098502,0.105760184 9.38,0.11 L9.06,0 L3,0 C1.34314575,0 -4.4408921e-16,1.34314575 -4.4408921e-16,3 L-4.4408921e-16,17 C-4.4408921e-16,18.6568542 1.34314575,20 3,20 L10,20 C10.5522847,20 11,19.5522847 11,19 C11,18.4477153 10.5522847,18 10,18 Z M10,3.41 L12.59,6 L11,6 C10.4477153,6 10,5.55228475 10,5 L10,3.41 Z M18.83,13.17 C17.2459125,11.6588864 14.7540875,11.6588864 13.17,13.17 C11.6091814,14.732556 11.6101203,17.2644069 13.1720974,18.8258049 C14.7340745,20.3872029 17.2659255,20.3872029 18.8279026,18.8258049 C20.3898797,17.2644069 20.3908186,14.732556 18.83,13.17 L18.83,13.17 Z M14,16 C14,14.8954305 14.8954305,14 16,14 C16.172235,14.0022281 16.3435341,14.0257397 16.51,14.07 L14.07,16.51 C14.0257397,16.3435341 14.0022281,16.172235 14,16 Z M17.41,17.41 C16.9057032,17.9012048 16.1802936,18.0911026 15.5,17.91 L17.93,15.49 C17.9742603,15.6564659 17.9977719,15.827765 18,16 C17.9977672,16.5295768 17.7855878,17.0366497 17.41,17.41 Z M9,16 C9.55228475,16 10,15.5522847 10,15 C10,14.4477153 9.55228475,14 9,14 L5,14 C4.44771525,14 4,14.4477153 4,15 C4,15.5522847 4.44771525,16 5,16 L9,16 Z M11,10 L5,10 C4.44771525,10 4,10.4477153 4,11 C4,11.5522847 4.44771525,12 5,12 L11,12 C11.5522847,12 12,11.5522847 12,11 C12,10.4477153 11.5522847,10 11,10 Z" id="Shape"></path>
        </g>
    </g>
</svg>