<?xml version="1.0" encoding="UTF-8"?>
<svg width="24px" height="24px" viewBox="0 0 24 24" version="1.1" xmlns="http://www.w3.org/2000/svg" xmlns:xlink="http://www.w3.org/1999/xlink">

    <g id="Icons/Basic/file-exclamation" stroke="none" stroke-width="1"  fill-rule="evenodd">
        <g id="file-exclamation" transform="translate(4.000000, 2.000000)" >
            <path d="M8.92,14.62 C8.89811168,14.5562757 8.86784641,14.4957452 8.83,14.44 C8.79307929,14.3876125 8.75300525,14.3375199 8.71,14.29 C8.4224393,14.0062554 7.9923971,13.9234033 7.62,14.08 C7.49724868,14.1275944 7.38510371,14.1989594 7.29,14.29 C7.24699475,14.3375199 7.20692071,14.3876125 7.17,14.44 C7.13215359,14.4957452 7.10188832,14.5562757 7.08,14.62 C7.05116778,14.6766856 7.03094561,14.7373522 7.02,14.8 C7.01555061,14.8665924 7.01555061,14.9334076 7.02,15 C7.01661989,15.1311765 7.04401865,15.2613206 7.1,15.38 C7.15064187,15.5011849 7.22166906,15.6127991 7.31,15.71 C7.49378873,15.8923408 7.74113182,15.9962966 8,16 C8.13117653,16.0033801 8.26132062,15.9759814 8.38,15.92 C8.63123026,15.8290762 8.8290762,15.6312303 8.92,15.38 C8.97598135,15.2613206 9.00338011,15.1311765 9,15 C9.00444939,14.9334076 9.00444939,14.8665924 9,14.8 C8.98278173,14.7362312 8.95579552,14.6755122 8.92,14.62 Z M16,6.94 C15.9895837,6.8481349 15.9694716,6.75763058 15.94,6.67 L15.94,6.58 C15.8919189,6.47717975 15.8277838,6.38266483 15.75,6.3 L15.75,6.3 L9.75,0.3 L9.75,0.3 C9.66733517,0.222216205 9.57282025,0.158081081 9.47,0.11 L9.38,0.11 C9.2784148,0.0517413546 9.16622335,0.0143442038 9.05,-2.22044605e-16 L3,-2.22044605e-16 C1.34314575,-2.22044605e-16 -8.8817842e-16,1.34314575 -8.8817842e-16,3 L-8.8817842e-16,17 C-8.8817842e-16,18.6568542 1.34314575,20 3,20 L13,20 C14.6568542,20 16,18.6568542 16,17 L16,7 C16,7 16,7 16,6.94 Z M10,3.41 L12.59,6 L11,6 C10.4477153,6 10,5.55228475 10,5 L10,3.41 Z M14,17 C14,17.5522847 13.5522847,18 13,18 L3,18 C2.44771525,18 2,17.5522847 2,17 L2,3 C2,2.44771525 2.44771525,2 3,2 L8,2 L8,5 C8,6.65685425 9.34314575,8 11,8 L14,8 L14,17 Z M8,9 C7.44771525,9 7,9.44771525 7,10 L7,12 C7,12.5522847 7.44771525,13 8,13 C8.55228475,13 9,12.5522847 9,12 L9,10 C9,9.44771525 8.55228475,9 8,9 Z" id="Shape"></path>
        </g>
    </g>
</svg>