<?xml version="1.0" encoding="UTF-8"?>
<svg width="24px" height="24px" viewBox="0 0 24 24" version="1.1" xmlns="http://www.w3.org/2000/svg" xmlns:xlink="http://www.w3.org/1999/xlink">

    <g id="Icons/Basic/file-lock-alt" stroke="none" stroke-width="1"  fill-rule="evenodd">
        <g id="file-lock-alt" transform="translate(2.000000, 2.000000)" >
            <path d="M8,18 L3,18 C2.44771525,18 2,17.5522847 2,17 L2,3 C2,2.44771525 2.44771525,2 3,2 L8,2 L8,5 C8,6.65685425 9.34314575,8 11,8 L15,8 C15.4037019,7.99798485 15.7665964,7.75342551 15.92,7.38 C16.0765967,7.0076029 15.9937446,6.5775607 15.71,6.29 L9.71,0.29 L9.71,0.29 C9.62733517,0.212216205 9.53282025,0.148081081 9.43,0.1 C9.4001498,0.0957601843 9.3698502,0.0957601843 9.34,0.1 L9.06,0 L3,0 C1.34314575,0 -4.4408921e-16,1.34314575 -4.4408921e-16,3 L-4.4408921e-16,17 C-4.4408921e-16,18.6568542 1.34314575,20 3,20 L8,20 C8.55228475,20 9,19.5522847 9,19 C9,18.4477153 8.55228475,18 8,18 Z M10,3.41 L12.59,6 L11,6 C10.4477153,6 10,5.55228475 10,5 L10,3.41 Z M11,11 C11,10.4477153 10.5522847,10 10,10 L5,10 C4.44771525,10 4,10.4477153 4,11 C4,11.5522847 4.44771525,12 5,12 L10,12 C10.5522847,12 11,11.5522847 11,11 Z M5,8 L6,8 C6.55228475,8 7,7.55228475 7,7 C7,6.44771525 6.55228475,6 6,6 L5,6 C4.44771525,6 4,6.44771525 4,7 C4,7.55228475 4.44771525,8 5,8 Z M5,14 C4.44771525,14 4,14.4477153 4,15 C4,15.5522847 4.44771525,16 5,16 L7,16 C7.55228475,16 8,15.5522847 8,15 C8,14.4477153 7.55228475,14 7,14 L5,14 Z M18,13.18 L18,13 C18,11.3431458 16.6568542,10 15,10 C13.3431458,10 12,11.3431458 12,13 L12,13.18 C10.8042713,13.6027483 10.0035644,14.7317451 10,16 L10,17 C10,18.6568542 11.3431458,20 13,20 L17,20 C18.6568542,20 20,18.6568542 20,17 L20,16 C19.9964356,14.7317451 19.1957287,13.6027483 18,13.18 L18,13.18 Z M15,12 C15.5522847,12 16,12.4477153 16,13 L14,13 C14,12.4477153 14.4477153,12 15,12 Z M18,17 C18,17.5522847 17.5522847,18 17,18 L13,18 C12.4477153,18 12,17.5522847 12,17 L12,16 C12,15.4477153 12.4477153,15 13,15 L17,15 C17.5522847,15 18,15.4477153 18,16 L18,17 Z" id="Shape"></path>
        </g>
    </g>
</svg>