<?xml version="1.0" encoding="UTF-8"?>
<svg width="24px" height="24px" viewBox="0 0 24 24" version="1.1" xmlns="http://www.w3.org/2000/svg" xmlns:xlink="http://www.w3.org/1999/xlink">

    <g id="Icons/Basic/file-exclamation-alt" stroke="none" stroke-width="1" fill-rule="evenodd">
        <g id="file-exclamation-alt" transform="translate(4.000000, 2.000000)" >
            <path d="M5,8 L6,8 C6.55228475,8 7,7.55228475 7,7 C7,6.44771525 6.55228475,6 6,6 L5,6 C4.44771525,6 4,6.44771525 4,7 C4,7.55228475 4.44771525,8 5,8 Z M11,10 L5,10 C4.44771525,10 4,10.4477153 4,11 C4,11.5522847 4.44771525,12 5,12 L11,12 C11.5522847,12 12,11.5522847 12,11 C12,10.4477153 11.5522847,10 11,10 Z M11,14 L5,14 C4.44771525,14 4,14.4477153 4,15 C4,15.5522847 4.44771525,16 5,16 L11,16 C11.5522847,16 12,15.5522847 12,15 C12,14.4477153 11.5522847,14 11,14 Z M15.71,18.29 C15.6624801,18.2469948 15.6123875,18.2069207 15.56,18.17 C15.5042548,18.1321536 15.4437243,18.1018883 15.38,18.08 L15.2,18 C15.004999,17.9619385 14.8030801,17.9828267 14.62,18.06 C14.3687697,18.1509238 14.1709238,18.3487697 14.08,18.6 C14.0208719,18.7247346 13.9933951,18.8621188 14,19 C13.9952143,19.407056 14.2376581,19.7763852 14.6130409,19.933882 C14.9884237,20.0913788 15.4218124,20.0056039 15.708903,19.7169926 C15.9959936,19.4283813 16.0794777,18.9945455 15.92,18.62 C15.8693581,18.4988151 15.7983309,18.3872009 15.71,18.29 L15.71,18.29 Z M16,6.94 C15.9895837,6.8481349 15.9694716,6.75763058 15.94,6.67 L15.94,6.58 C15.8919189,6.47717975 15.8277838,6.38266483 15.75,6.3 L15.75,6.3 L9.75,0.3 L9.75,0.3 C9.66733517,0.222216205 9.57282025,0.158081081 9.47,0.11 C9.4401498,0.105760184 9.4098502,0.105760184 9.38,0.11 C9.2784148,0.0517413546 9.16622335,0.0143442038 9.05,-2.22044605e-16 L3,-2.22044605e-16 C1.34314575,-2.22044605e-16 -8.8817842e-16,1.34314575 -8.8817842e-16,3 L-8.8817842e-16,17 C-8.8817842e-16,18.6568542 1.34314575,20 3,20 L11,20 C11.5522847,20 12,19.5522847 12,19 C12,18.4477153 11.5522847,18 11,18 L3,18 C2.44771525,18 2,17.5522847 2,17 L2,3 C2,2.44771525 2.44771525,2 3,2 L8,2 L8,5 C8,6.65685425 9.34314575,8 11,8 L14,8 L14,10 C14,10.5522847 14.4477153,11 15,11 C15.5522847,11 16,10.5522847 16,10 L16,7 C16,7 16,7 16,6.94 Z M11,6 C10.4477153,6 10,5.55228475 10,5 L10,3.41 L12.59,6 L11,6 Z M15,13 C14.4477153,13 14,13.4477153 14,14 L14,16 C14,16.5522847 14.4477153,17 15,17 C15.5522847,17 16,16.5522847 16,16 L16,14 C16,13.4477153 15.5522847,13 15,13 Z" id="Shape"></path>
        </g>
    </g>
</svg>