<?xml version="1.0" encoding="UTF-8"?>
<svg width="24px" height="24px" viewBox="0 0 24 24" version="1.1" xmlns="http://www.w3.org/2000/svg" xmlns:xlink="http://www.w3.org/1999/xlink">

    <g id="Icons/Basic/filter" stroke="none" stroke-width="1"  fill-rule="evenodd">
        <g id="filter" transform="translate(2.000000, 2.000000)" >
            <path d="M16.9999998,-4.4408921e-16 L2.99999982,-4.4408921e-16 C1.34314575,-4.4408921e-16 -1.80878009e-07,1.34314575 -1.80878009e-07,3 L-1.80878009e-07,4.17 C-1.80878009e-07,4.58294291 0.0849662146,4.991469 0.25,5.37 L0.25,5.43 C0.391279588,5.75097124 0.591392243,6.04266087 0.84,6.29 L6.99999982,12.41 L6.99999982,19 C6.99930861,19.3455015 7.17701455,19.6668845 7.47,19.85 C7.62914125,19.948629 7.81277483,20.0006008 7.99999982,20 C8.15654225,19.9990614 8.3106777,19.9613839 8.45,19.89 L12.45,17.89 C12.7862797,17.7205498 12.9988587,17.3765582 12.9999998,17 L12.9999998,12.41 L19.12,6.29 C19.3686078,6.04266087 19.5687204,5.75097124 19.71,5.43 L19.71,5.37 C19.8888143,4.99443065 19.9875717,4.5857793 19.9999998,4.17 L19.9999998,3 C19.9999998,1.34314575 18.6568542,-4.4408921e-16 16.9999998,-4.4408921e-16 Z M11.29,11.29 C11.1028135,11.4787188 10.9984632,11.734197 11,12 L11,16.38 L9,17.38 L9,12 C9.00153676,11.734197 8.89718651,11.4787188 8.71,11.29 L3.41,6 L16.59,6 L11.29,11.29 Z M18,4 L2,4 L2,3 C2,2.44771525 2.44771525,2 3,2 L17,2 C17.5522847,2 18,2.44771525 18,3 L18,4 Z" id="Shape"></path>
        </g>
    </g>
</svg>