<?xml version="1.0" encoding="UTF-8"?>
<svg width="24px" height="24px" viewBox="0 0 24 24" version="1.1" xmlns="http://www.w3.org/2000/svg" xmlns:xlink="http://www.w3.org/1999/xlink">

    <g id="Icons/Basic/home" stroke="none" stroke-width="1"  fill-rule="evenodd">
        <g id="home" transform="translate(2.000000, 2.000000)" >
            <path d="M19.66,8.25 L10.66,0.25 C10.2824937,-0.0816458682 9.71750626,-0.0816458682 9.34,0.25 L0.34,8.25 C0.0267221143,8.52712522 -0.0809907045,8.96994458 0.07,9.36 C0.218424264,9.74465191 0.587707179,9.99878209 1,10 L2,10 L2,19 C2,19.5522847 2.44771525,20 3,20 L17,20 C17.5522847,20 18,19.5522847 18,19 L18,10 L19,10 C19.4122928,9.99878209 19.7815757,9.74465191 19.93,9.36 C20.0809907,8.96994458 19.9732779,8.52712522 19.66,8.25 Z M11,18 L9,18 L9,15 C9,14.4477153 9.44771525,14 10,14 C10.5522847,14 11,14.4477153 11,15 L11,18 Z M16,18 L13,18 L13,15 C13,13.3431458 11.6568542,12 10,12 C8.34314575,12 7,13.3431458 7,15 L7,18 L4,18 L4,10 L16,10 L16,18 Z M3.63,8 L10,2.34 L16.37,8 L3.63,8 Z" id="Shape"></path>
        </g>
    </g>
</svg>