<?xml version="1.0" encoding="UTF-8"?>
<svg width="24px" height="24px" viewBox="0 0 24 24" version="1.1" xmlns="http://www.w3.org/2000/svg" xmlns:xlink="http://www.w3.org/1999/xlink">

    <g id="Icons/Basic/home-alt" stroke="none" stroke-width="1"  fill-rule="evenodd">
        <g id="home-alt" transform="translate(3.000000, 1.000000)" >
            <path d="M17,7 L17,7 L11,1.74 C9.86119738,0.72142397 8.13880262,0.72142397 7,1.74 L1,7 C0.357444342,7.57467023 -0.00685247685,8.39798104 -9.49604353e-05,9.26 L-9.49604353e-05,18 C-9.49604353e-05,19.6568542 1.34314575,21 3,21 L15,21 C16.6568542,21 18.0000323,19.6568542 18.0000323,18 L18.0000323,9.25 C18.0039789,8.39146038 17.6399328,7.57235668 17,7 Z M11,19 L7,19 L7,14 C7,13.4477153 7.44771525,13 8,13 L10,13 C10.5522847,13 11,13.4477153 11,14 L11,19 Z M16,18 C16,18.5522847 15.5522847,19 15,19 L13,19 L13,14 C13,12.3431458 11.6568542,11 10,11 L8,11 C6.34314575,11 5,12.3431458 5,14 L5,19 L3,19 C2.44771525,19 2,18.5522847 2,18 L2,9.25 C2.00036372,8.96277285 2.12421575,8.68956984 2.34,8.5 L8.34,3.25 C8.71750626,2.91835413 9.28249374,2.91835413 9.66,3.25 L15.66,8.5 C15.8757843,8.68956984 15.9996363,8.96277285 16,9.25 L16,18 Z" id="Shape"></path>
        </g>
    </g>
</svg>