<?xml version="1.0" encoding="UTF-8"?>
<svg width="24px" height="24px" viewBox="0 0 24 24" version="1.1" xmlns="http://www.w3.org/2000/svg" xmlns:xlink="http://www.w3.org/1999/xlink">

    <g id="Icons/Basic/link-alt" stroke="none" stroke-width="1"  fill-rule="evenodd">
        <g id="link-alt" transform="translate(2.000000, 2.000000)" >
            <path d="M10.11,13.39 L6.23,17.27 C5.25361373,18.2123243 3.70638627,18.2123243 2.73,17.27 C2.26467328,16.8065078 2.00310069,16.1767754 2.00310069,15.52 C2.00310069,14.8632246 2.26467328,14.2334922 2.73,13.77 L6.61,9.89 C7.00212217,9.49787783 7.00212217,8.86212217 6.61,8.47 C6.21787783,8.07787783 5.58212217,8.07787783 5.19,8.47 L1.31,12.36 C-0.31404273,14.1277194 -0.256169415,16.8613656 1.4412325,18.5587675 C3.13863441,20.2561694 5.87228065,20.3140427 7.64,18.69 L11.53,14.81 C11.9221222,14.4178778 11.9221222,13.7821222 11.53,13.39 C11.1378778,12.9978778 10.5021222,12.9978778 10.11,13.39 L10.11,13.39 Z M18.69,1.31 C16.9388369,-0.430282584 14.1111631,-0.430282584 12.36,1.31 L8.47,5.19 C8.21634142,5.44365857 8.11727646,5.81337399 8.21012194,6.15987805 C8.30296742,6.5063821 8.5736179,6.77703258 8.92012195,6.86987806 C9.26662601,6.96272354 9.63634143,6.86365858 9.89,6.61 L13.77,2.73 C14.7463863,1.78767565 16.2936137,1.78767565 17.27,2.73 C17.7353267,3.19349218 17.9968993,3.82322458 17.9968993,4.48 C17.9968993,5.13677542 17.7353267,5.76650782 17.27,6.23 L13.39,10.11 C13.2006873,10.2977666 13.0942017,10.5533625 13.0942017,10.82 C13.0942017,11.0866375 13.2006873,11.3422334 13.39,11.53 C13.5777666,11.7193127 13.8333625,11.8257983 14.1,11.8257983 C14.3666375,11.8257983 14.6222334,11.7193127 14.81,11.53 L18.69,7.64 C20.4302826,5.8888369 20.4302826,3.0611631 18.69,1.31 Z M6.83,13.17 C7.01871883,13.3571865 7.27419702,13.4615368 7.54,13.4600167 C7.80580298,13.4615368 8.06128117,13.3571865 8.25,13.17 L13.17,8.25 C13.5621222,7.85787783 13.5621222,7.22212217 13.17,6.83 C12.7778778,6.43787783 12.1421222,6.43787783 11.75,6.83 L6.83,11.75 C6.64068735,11.9377666 6.53420168,12.1933625 6.53420168,12.46 C6.53420168,12.7266375 6.64068735,12.9822334 6.83,13.17 Z" id="Shape"></path>
        </g>
    </g>
</svg>