<?xml version="1.0" encoding="UTF-8"?>
<svg width="24px" height="24px" viewBox="0 0 24 24" version="1.1" xmlns="http://www.w3.org/2000/svg" xmlns:xlink="http://www.w3.org/1999/xlink">

    <g id="Icons/Basic/lock" stroke="none" stroke-width="1"  fill-rule="evenodd">
        <g id="lock" transform="translate(4.000000, 2.000000)" >
            <path d="M13,7 L13,5 C13,2.23857625 10.7614237,8.8817842e-16 8,8.8817842e-16 C5.23857625,8.8817842e-16 3,2.23857625 3,5 L3,7 C1.34314575,7 1.77635684e-15,8.34314575 1.77635684e-15,10 L1.77635684e-15,17 C1.77635684e-15,18.6568542 1.34314575,20 3,20 L13,20 C14.6568542,20 16,18.6568542 16,17 L16,10 C16,8.34314575 14.6568542,7 13,7 Z M5,5 C5,3.34314575 6.34314575,2 8,2 C9.65685425,2 11,3.34314575 11,5 L11,7 L5,7 L5,5 Z M14,17 C14,17.5522847 13.5522847,18 13,18 L3,18 C2.44771525,18 2,17.5522847 2,17 L2,10 C2,9.44771525 2.44771525,9 3,9 L13,9 C13.5522847,9 14,9.44771525 14,10 L14,17 Z" id="Shape"></path>
        </g>
    </g>
</svg>