<?xml version="1.0" encoding="UTF-8"?>
<svg width="24px" height="24px" viewBox="0 0 24 24" version="1.1" xmlns="http://www.w3.org/2000/svg" xmlns:xlink="http://www.w3.org/1999/xlink">

    <g id="Icons/Basic/lock-slash" stroke="none" stroke-width="1"  fill-rule="evenodd">
        <g id="lock-slash" transform="translate(1.000000, 1.000000)" >
            <path d="M9.84,4.38 C10.6334709,3.81470329 11.718825,3.90338981 12.41,4.59 C12.7855878,4.96335029 12.9977672,5.47042315 13,6 L13,9 C13,9.55228475 13.4477153,10 14,10 L15,10 C15.5522847,10 16,10.4477153 16,11 L16,11.34 C16,11.8922847 16.4477153,12.34 17,12.34 C17.5522847,12.34 18,11.8922847 18,11.34 L18,11 C18,9.34314575 16.6568542,8 15,8 L15,6 C15.0008345,4.93881482 14.5799543,3.92078842 13.83,3.17 C12.4217716,1.8024133 10.2367932,1.63822417 8.64,2.78 C8.1981722,3.11137085 8.10862915,3.7381722 8.44,4.18 C8.77137085,4.6218278 9.3981722,4.71137085 9.84,4.38 Z M20.71,19.29 L2.71,1.29 C2.31787783,0.897877838 1.68212218,0.897877842 1.29000001,1.29000001 C0.897877842,1.68212218 0.897877838,2.31787783 1.29,2.71 L6.62,8 C5.11304986,8.19238028 3.9877698,9.48086889 4,11 L4,17 C4,18.6568542 5.34314575,20 7,20 L15,20 C15.9407512,19.9968602 16.8255514,19.5526091 17.39,18.8 L19.29,20.71 C19.4777666,20.8993127 19.7333625,21.0057983 20,21.0057983 C20.2666375,21.0057983 20.5222334,20.8993127 20.71,20.71 C20.8993127,20.5222334 21.0057983,20.2666375 21.0057983,20 C21.0057983,19.7333625 20.8993127,19.4777666 20.71,19.29 Z M15,18 L7,18 C6.44771525,18 6,17.5522847 6,17 L6,11 C6,10.4477153 6.44771525,10 7,10 L8.59,10 L10.66,12.07 C10.2674759,12.2118868 10.0043596,12.5826416 10,13 L10,15 C10,15.5522847 10.4477153,16 11,16 C11.5522847,16 12,15.5522847 12,15 L12,13.41 L15.93,17.34 C15.7881132,17.7325241 15.4173584,17.9956404 15,18 Z" id="Shape"></path>
        </g>
    </g>
</svg>