<?xml version="1.0" encoding="UTF-8"?>
<svg width="24px" height="24px" viewBox="0 0 24 24" version="1.1" xmlns="http://www.w3.org/2000/svg" xmlns:xlink="http://www.w3.org/1999/xlink">

    <g id="Icons/Basic/lock-open-alt" stroke="none" stroke-width="1"  fill-rule="evenodd">
        <g id="lock-open-alt" transform="translate(4.000000, 2.000000)" >
            <path d="M8,11 C7.3764518,10.9927112 6.8143219,11.3744932 6.59121356,11.956806 C6.36810522,12.5391187 6.53121801,13.1987714 7,13.61 L7,15 C7,15.5522847 7.44771525,16 8,16 C8.55228475,16 9,15.5522847 9,15 L9,13.61 C9.46878199,13.1987714 9.63189478,12.5391187 9.40878644,11.956806 C9.1856781,11.3744932 8.6235482,10.9927112 8,11 L8,11 Z M13,7 L5,7 L5,5 C4.99701698,3.78561306 5.72644658,2.68921151 6.84768151,2.22276026 C7.96891645,1.75630901 9.26076569,2.01182697 10.12,2.87 C10.4959483,3.25406854 10.7648544,3.72982559 10.9,4.25 C10.9893164,4.59654763 11.2567291,4.86912112 11.6015063,4.96504467 C11.9462836,5.06096822 12.3160455,4.96566875 12.5715064,4.71504466 C12.8269672,4.46442058 12.9293164,4.09654763 12.84,3.75 C12.6121836,2.88480087 12.160339,2.09493515 11.53,1.46 C10.0989197,0.0333890422 7.94981592,-0.391592545 6.08346008,0.382956068 C4.21710424,1.15750468 3.000428,2.9793047 3,5 L3,7 C1.34314575,7 0,8.34314575 0,10 L0,17 C0,18.6568542 1.34314575,20 3,20 L13,20 C14.6568542,20 16,18.6568542 16,17 L16,10 C16,8.34314575 14.6568542,7 13,7 Z M14,17 C14,17.5522847 13.5522847,18 13,18 L3,18 C2.44771525,18 2,17.5522847 2,17 L2,10 C2,9.44771525 2.44771525,9 3,9 L13,9 C13.5522847,9 14,9.44771525 14,10 L14,17 Z" id="Shape"></path>
        </g>
    </g>
</svg>