<?xml version="1.0" encoding="UTF-8"?>
<svg width="24px" height="24px" viewBox="0 0 24 24" version="1.1" xmlns="http://www.w3.org/2000/svg" xmlns:xlink="http://www.w3.org/1999/xlink">

    <g id="Icons/Basic/paperclip" stroke="none" stroke-width="1"  fill-rule="evenodd">
        <g id="paperclip" transform="translate(2.000000, 2.000000)" >
            <path d="M16.08,10.42 L9.9,16.61 C8.21809666,18.1047191 5.66263918,18.0294934 4.07157288,16.4384271 C2.48050657,14.8473608 2.40528093,12.2919033 3.9,10.61 L11.9,2.61 C12.8919089,1.6677738 14.4480911,1.6677738 15.44,2.61 C16.4083479,3.59133526 16.4083479,5.16866474 15.44,6.15 L8.54,13.04 C8.35422189,13.2400687 8.07582045,13.3258284 7.80966679,13.2649742 C7.54351313,13.20412 7.33004234,13.0058972 7.24966679,12.7449742 C7.16929124,12.4840513 7.23422189,12.2000687 7.42,12 L12.55,6.88 C12.9421222,6.48787783 12.9421222,5.85212218 12.55,5.46000001 C12.1578778,5.06787784 11.5221222,5.06787784 11.13,5.46 L6,10.6 C5.48152975,11.1144493 5.1899158,11.81461 5.1899158,12.545 C5.1899158,13.27539 5.48152975,13.9755507 6,14.49 C7.0891492,15.5274603 8.8008508,15.5274603 9.89,14.49 L16.78,7.59 C18.4321532,5.81694147 18.3834033,3.05394167 16.6697308,1.34026921 C14.9560583,-0.373403256 12.1930585,-0.422153163 10.42,1.23 L2.42,9.23 C0.178762493,11.7123033 0.288780654,15.5190455 2.66963896,17.8677662 C5.05049727,20.2164869 8.85838298,20.2747636 11.31,18 L17.5,11.82 C17.7536586,11.5663414 17.8527235,11.196626 17.759878,10.850122 C17.6670326,10.5036179 17.3963821,10.2329674 17.049878,10.140122 C16.703374,10.0472765 16.3336586,10.1463414 16.08,10.4 L16.08,10.42 Z" id="Path"></path>
        </g>
    </g>
</svg>