<?xml version="1.0" encoding="UTF-8"?>
<svg width="24px" height="24px" viewBox="0 0 24 24" version="1.1" xmlns="http://www.w3.org/2000/svg" xmlns:xlink="http://www.w3.org/1999/xlink">

    <g id="Icons/Basic/print" stroke="none" stroke-width="1"  fill-rule="evenodd">
        <g id="print" transform="translate(2.000000, 2.000000)" >
            <path d="M5,8 C4.44771525,8 4,8.44771525 4,9 C4,9.55228475 4.44771525,10 5,10 C5.55228475,10 6,9.55228475 6,9 C6,8.44771525 5.55228475,8 5,8 Z M17,4 L16,4 L16,1 C16,0.44771525 15.5522847,0 15,0 L5,0 C4.44771525,0 4,0.44771525 4,1 L4,4 L3,4 C1.34314575,4 -4.4408921e-16,5.34314575 -4.4408921e-16,7 L-4.4408921e-16,13 C-4.4408921e-16,14.6568542 1.34314575,16 3,16 L4,16 L4,19 C4,19.5522847 4.44771525,20 5,20 L15,20 C15.5522847,20 16,19.5522847 16,19 L16,16 L17,16 C18.6568542,16 20,14.6568542 20,13 L20,7 C20,5.34314575 18.6568542,4 17,4 Z M6,2 L14,2 L14,4 L6,4 L6,2 Z M14,18 L6,18 L6,14 L14,14 L14,18 Z M18,13 C18,13.5522847 17.5522847,14 17,14 L16,14 L16,13 C16,12.4477153 15.5522847,12 15,12 L5,12 C4.44771525,12 4,12.4477153 4,13 L4,14 L3,14 C2.44771525,14 2,13.5522847 2,13 L2,7 C2,6.44771525 2.44771525,6 3,6 L17,6 C17.5522847,6 18,6.44771525 18,7 L18,13 Z" id="Shape"></path>
        </g>
    </g>
</svg>