<?xml version="1.0" encoding="UTF-8"?>
<svg width="24px" height="24px" viewBox="0 0 24 24" version="1.1" xmlns="http://www.w3.org/2000/svg" xmlns:xlink="http://www.w3.org/1999/xlink">

    <g id="Icons/Basic/print-slash" stroke="none" stroke-width="1"  fill-rule="evenodd">
        <g id="print-slash" transform="translate(1.000000, 1.000000)" >
            <path d="M6,9 C5.44771525,9 5,9.44771525 5,10 C5,10.5522847 5.44771525,11 6,11 C6.55228475,11 7,10.5522847 7,10 C7,9.44771525 6.55228475,9 6,9 Z M2.71,1.29 C2.45634143,1.03634143 2.08662601,0.937276483 1.74012196,1.03012196 C1.39361791,1.12296744 1.12296744,1.39361791 1.03012196,1.74012196 C0.937276483,2.08662601 1.03634143,2.45634143 1.29,2.71 L3.62,5 C2.11304986,5.19238028 0.987769803,6.48086889 1,8 L1,14 C1,15.6568542 2.34314575,17 4,17 L5,17 L5,20 C5,20.5522847 5.44771525,21 6,21 L16,21 C16.5522847,21 17,20.5522847 17,20 L17,18.41 L19.29,20.71 C19.4777666,20.8993127 19.7333625,21.0057983 20,21.0057983 C20.2666375,21.0057983 20.5222334,20.8993127 20.71,20.71 C20.8993127,20.5222334 21.0057983,20.2666375 21.0057983,20 C21.0057983,19.7333625 20.8993127,19.4777666 20.71,19.29 L2.71,1.29 Z M5,14 L5,15 L4,15 C3.44771525,15 3,14.5522847 3,14 L3,8 C3,7.44771525 3.44771525,7 4,7 L5.59,7 L11.59,13 L6,13 C5.44771525,13 5,13.4477153 5,14 Z M15,19 L7,19 L7,15 L13.59,15 L15,16.41 L15,19 Z M18,5 L17,5 L17,2 C17,1.44771525 16.5522847,1 16,1 L7.66,1 C7.10771525,1 6.66,1.44771525 6.66,2 C6.66,2.55228475 7.10771525,3 7.66,3 L15,3 L15,5 L11.66,5 C11.1077153,5 10.66,5.44771525 10.66,6 C10.66,6.55228475 11.1077153,7 11.66,7 L18,7 C18.5522847,7 19,7.44771525 19,8 L19,14 C19.0054809,14.0364618 19.0054809,14.0735382 19,14.11 C18.9469015,14.3699175 18.9992575,14.6402825 19.1455449,14.861589 C19.2918322,15.0828955 19.5200613,15.2370054 19.78,15.29 L19.98,15.29 C20.4627608,15.2997357 20.8835264,14.9631232 20.98,14.49 C21.0007827,14.3275489 21.0074743,14.1636045 21,14 L21,8 C21,6.34314575 19.6568542,5 18,5 Z" id="Shape"></path>
        </g>
    </g>
</svg>