<?xml version="1.0" encoding="UTF-8"?>
<svg width="24px" height="24px" viewBox="0 0 24 24" version="1.1" xmlns="http://www.w3.org/2000/svg" xmlns:xlink="http://www.w3.org/1999/xlink">

    <g id="Icons/Basic/redo" stroke="none" stroke-width="1"  fill-rule="evenodd">
        <g id="redo" transform="translate(1.000000, 1.000000)" >
            <path d="M20,10 C19.4477153,10 19,10.4477153 19,11 C19.0245607,14.863721 16.3005325,18.1999458 12.5099591,18.9486092 C8.71938575,19.6972726 4.93152591,17.6471889 3.48532221,14.0642518 C2.03911851,10.4813147 3.34252136,6.37621216 6.59070042,4.28377911 C9.83887948,2.19134605 14.1155766,2.70182357 16.78,5.5 L14.38,5.5 C13.8277153,5.5 13.38,5.94771525 13.38,6.5 C13.38,7.05228475 13.8277153,7.5 14.38,7.5 L18.91,7.5 C19.4622847,7.5 19.91,7.05228475 19.91,6.5 L19.91,2 C19.91,1.44771525 19.4622847,1 18.91,1 C18.3577153,1 17.91,1.44771525 17.91,2 L17.91,3.77 C14.4768434,0.488135828 9.2088925,0.0738449261 5.3049192,2.7786904 C1.40094591,5.48353588 -0.0619143018,10.5612306 1.80460733,14.9285288 C3.67112897,19.295827 8.35204515,21.7477584 13.0050395,20.7954766 C17.6580338,19.8431949 20.9993102,15.7494417 21,11 C21,10.7347835 20.8946432,10.4804296 20.7071068,10.2928932 C20.5195704,10.1053568 20.2652165,10 20,10 Z" id="Path"></path>
        </g>
    </g>
</svg>