<?xml version="1.0" encoding="UTF-8"?>
<svg width="24px" height="24px" viewBox="0 0 24 24" version="1.1" xmlns="http://www.w3.org/2000/svg" xmlns:xlink="http://www.w3.org/1999/xlink">

    <g id="Icons/Basic/server-connection" stroke="none" stroke-width="1"  fill-rule="evenodd">
        <g id="server-connection" transform="translate(2.000000, 1.000000)" >
            <path d="M9,12 C8.44771525,12 8,12.4477153 8,13 C8,13.5522847 8.44771525,14 9,14 C9.55228475,14 10,13.5522847 10,13 C10,12.4477153 9.55228475,12 9,12 Z M5,12 C4.44771525,12 4,12.4477153 4,13 C4,13.5522847 4.44771525,14 5,14 C5.55228475,14 6,13.5522847 6,13 C6,12.4477153 5.55228475,12 5,12 Z M20,3 C20,1.34314575 18.6568542,-2.22044605e-16 17,-2.22044605e-16 L3,-2.22044605e-16 C1.34314575,-2.22044605e-16 -4.4408921e-16,1.34314575 -4.4408921e-16,3 L-4.4408921e-16,7 C0.00441061188,7.74005463 0.282210872,8.45236299 0.78,9 C0.282210872,9.54763701 0.00441061188,10.2599454 -4.4408921e-16,11 L-4.4408921e-16,15 C-4.4408921e-16,16.6568542 1.34314575,18 3,18 L9,18 L9,20 L1,20 C0.44771525,20 -4.4408921e-16,20.4477153 -4.4408921e-16,21 C-4.4408921e-16,21.5522847 0.44771525,22 1,22 L19,22 C19.5522847,22 20,21.5522847 20,21 C20,20.4477153 19.5522847,20 19,20 L11,20 L11,18 L17,18 C18.6568542,18 20,16.6568542 20,15 L20,11 C19.9955894,10.2599454 19.7177891,9.54763701 19.22,9 C19.7177891,8.45236299 19.9955894,7.74005463 20,7 L20,3 Z M18,15 C18,15.5522847 17.5522847,16 17,16 L3,16 C2.44771525,16 2,15.5522847 2,15 L2,11 C2,10.4477153 2.44771525,10 3,10 L17,10 C17.5522847,10 18,10.4477153 18,11 L18,15 Z M18,7 C18,7.55228475 17.5522847,8 17,8 L3,8 C2.44771525,8 2,7.55228475 2,7 L2,3 C2,2.44771525 2.44771525,2 3,2 L17,2 C17.5522847,2 18,2.44771525 18,3 L18,7 Z M9,4 C8.44771525,4 8,4.44771525 8,5 C8,5.55228475 8.44771525,6 9,6 C9.55228475,6 10,5.55228475 10,5 C10,4.44771525 9.55228475,4 9,4 Z M5,4 C4.44771525,4 4,4.44771525 4,5 C4,5.55228475 4.44771525,6 5,6 C5.55228475,6 6,5.55228475 6,5 C6,4.44771525 5.55228475,4 5,4 Z" id="Shape"></path>
        </g>
    </g>
</svg>