<?xml version="1.0" encoding="UTF-8"?>
<svg width="24px" height="24px" viewBox="0 0 24 24" version="1.1" xmlns="http://www.w3.org/2000/svg" xmlns:xlink="http://www.w3.org/1999/xlink">

    <g id="Icons/Basic/share-alt" stroke="none" stroke-width="1"  fill-rule="evenodd">
        <g id="share-alt" transform="translate(1.000000, 1.000000)" >
            <path d="M17,13 C15.803667,13.0079114 14.6736801,13.5508921 13.92,14.48 L8.82,12.13 C9.05978806,11.395748 9.05978806,10.604252 8.82,9.87 L13.92,7.52 C15.1620547,9.0187722 17.3026972,9.40583228 18.9909491,8.43690318 C20.6792009,7.46797409 21.424845,5.42440345 20.7572986,3.59590686 C20.0897522,1.76741027 18.2028507,0.684927704 16.2874343,1.03162353 C14.3720179,1.37831935 12.9842655,3.05352361 13,5 C13.0030077,5.23823181 13.0264268,5.47576761 13.07,5.71 L7.79,8.14 C6.21881799,6.60370382 3.70252268,6.62253603 2.15451097,8.18217657 C0.606499263,9.74181711 0.606499263,12.2581829 2.15451097,13.8178234 C3.70252268,15.377464 6.21881799,15.3962962 7.79,13.86 L13.07,16.29 C13.0264268,16.5242324 13.0030077,16.7617682 13,17 C13,19.209139 14.790861,21 17,21 C19.209139,21 21,19.209139 21,17 C21,14.790861 19.209139,13 17,13 Z M17,3 C18.1045695,3 19,3.8954305 19,5 C19,6.1045695 18.1045695,7 17,7 C15.8954305,7 15,6.1045695 15,5 C15,3.8954305 15.8954305,3 17,3 Z M5,13 C3.8954305,13 3,12.1045695 3,11 C3,9.8954305 3.8954305,9 5,9 C6.1045695,9 7,9.8954305 7,11 C7,12.1045695 6.1045695,13 5,13 Z M17,19 C15.8954305,19 15,18.1045695 15,17 C15,15.8954305 15.8954305,15 17,15 C18.1045695,15 19,15.8954305 19,17 C19,18.1045695 18.1045695,19 17,19 Z" id="Shape"></path>
        </g>
    </g>
</svg>