<?xml version="1.0" encoding="UTF-8"?>
<svg width="24px" height="24px" viewBox="0 0 24 24" version="1.1" xmlns="http://www.w3.org/2000/svg" xmlns:xlink="http://www.w3.org/1999/xlink">

    <g id="Icons/Basic/sync-slash" stroke="none" stroke-width="1"  fill-rule="evenodd">
        <g id="sync-slash" transform="translate(1.000000, 1.000000)" >
            <path d="M18.88,14.5 L14.38,14.5 C13.8277153,14.5 13.38,14.9477153 13.38,15.5 C13.38,16.0522847 13.8277153,16.5 14.38,16.5 L16.78,16.5 C15.2761472,18.0885017 13.187429,18.9919265 11,19 C9.92851539,18.9989482 8.8679406,18.7847936 7.88,18.37 L6.39,19.86 C7.81040502,20.6110485 9.39325852,21.00247 11,21.0000116 C13.5636143,20.9926878 16.0265097,20.001086 17.88,18.23 L17.88,20 C17.88,20.5522847 18.3277153,21.0000116 18.88,21.0000116 C19.4322847,21.0000116 19.88,20.5522847 19.88,20 L19.88,15.5 C19.88,14.9477153 19.4322847,14.5 18.88,14.5 Z M17.31,6.1 L17.31,6.1 L18.74,4.67 L18.74,4.67 L20.74,2.67 C20.9936586,2.41634143 21.0927235,2.04662601 20.999878,1.70012196 C20.9070326,1.35361791 20.6363821,1.08296744 20.289878,0.990121963 C19.943374,0.897276483 19.5736586,0.996341431 19.32,1.25 L17.32,3.25 C15.5398102,1.78658893 13.3044658,0.990778045 11,1 C8.43638565,1.00731219 5.97349028,1.99891396 4.12,3.77 L4.12,2 C4.12,1.44771525 3.67228475,1 3.12,1 C2.56771525,1 2.12,1.44771525 2.12,2 L2.12,6.5 C2.12,7.05228475 2.56771525,7.5 3.12,7.5 L7.62,7.5 C8.17228475,7.5 8.62,7.05228475 8.62,6.5 C8.62,5.94771525 8.17228475,5.5 7.62,5.5 L5.22,5.5 C8.03111031,2.50941534 12.6596529,2.1580452 15.89,4.69 L4.69,15.89 C3.59582183,14.4947751 3.00080469,12.7730983 3,11 C3,10.4477153 2.55228475,10 2,10 C1.44771525,10 1,10.4477153 1,11 C0.996405975,13.3069408 1.79938944,15.5425599 3.27,17.32 L1.27,19.32 C1.08068735,19.5077666 0.974201676,19.7633625 0.974201676,20.03 C0.974201676,20.2966375 1.08068735,20.5522334 1.27,20.74 C1.4577666,20.9293127 1.71336246,21.0357983 1.98,21.0357983 C2.24663754,21.0357983 2.5022334,20.9293127 2.69,20.74 L4.69,18.74 L4.69,18.74 L6.12,17.31 L6.12,17.31 L17.31,6.1 Z M18.37,7.88 C18.7847936,8.8679406 18.9989482,9.92851539 19,11 C19,11.5522847 19.4477153,12 20,12 C20.5522847,12 21.0000116,11.5522847 21.0000116,11 C21.00247,9.39325852 20.6110485,7.81040502 19.86,6.39 L18.37,7.88 Z" id="Shape"></path>
        </g>
    </g>
</svg>