<?xml version="1.0" encoding="UTF-8"?>
<svg width="24px" height="24px" viewBox="0 0 24 24" version="1.1" xmlns="http://www.w3.org/2000/svg" xmlns:xlink="http://www.w3.org/1999/xlink">

    <g id="Icons/Basic/sync" stroke="none" stroke-width="1"  fill-rule="evenodd">
        <g id="sync" transform="translate(2.000000, 2.000000)" >
            <path d="M17.91,13.51 L13.38,13.51 C12.8277153,13.51 12.38,13.9577153 12.38,14.51 C12.38,15.0622847 12.8277153,15.51 13.38,15.51 L15.78,15.51 C13.5233997,17.8682274 10.0604457,18.6190743 7.02977662,17.4072465 C3.99910757,16.1954187 2.00854292,13.2639559 2,10 C2,9.44771525 1.55228475,9 1,9 C0.44771525,9 8.8817842e-16,9.44771525 8.8817842e-16,10 C0.0108050948,13.9912112 2.39388957,17.5937891 6.06274217,19.165223 C9.73159477,20.7366569 13.9835386,19.975978 16.88,17.23 L16.88,19 C16.88,19.5522847 17.3277153,20 17.88,20 C18.4322847,20 18.88,19.5522847 18.88,19 L18.88,14.5 C18.8748718,13.9631071 18.4466765,13.526083 17.91,13.51 Z M10,-4.4408921e-16 C7.43638565,0.00731219276 4.97349028,0.998913963 3.12,2.77 L3.12,1 C3.12,0.44771525 2.67228475,-4.4408921e-16 2.12,-4.4408921e-16 C1.56771525,-4.4408921e-16 1.12,0.44771525 1.12,1 L1.12,5.5 C1.12,6.05228475 1.56771525,6.5 2.12,6.5 L6.62,6.5 C7.17228475,6.5 7.62,6.05228475 7.62,5.5 C7.62,4.94771525 7.17228475,4.5 6.62,4.5 L4.22,4.5 C6.47533653,2.14306568 9.93585878,1.39160174 12.9656064,2.60086242 C15.9953541,3.81012309 17.9873979,6.7378652 18,10 C18,10.5522847 18.4477153,11 19,11 C19.5522847,11 20,10.5522847 20,10 C20,7.3478351 18.9464316,4.80429597 17.0710678,2.92893219 C15.195704,1.0535684 12.6521649,-4.4408921e-16 10,-4.4408921e-16 Z" id="Shape"></path>
        </g>
    </g>
</svg>