<?xml version="1.0" encoding="UTF-8"?>
<svg width="24px" height="24px" viewBox="0 0 24 24" version="1.1" xmlns="http://www.w3.org/2000/svg" xmlns:xlink="http://www.w3.org/1999/xlink">

    <g id="Icons/Basic/users-alt" stroke="none" stroke-width="1"  fill-rule="evenodd">
        <g id="users-alt" transform="translate(1.000000, 3.000000)" >
            <path d="M11.3,9.22 C12.3796492,8.28545144 13.0000156,6.92794377 13,5.5 C13,2.73857625 10.7614237,0.5 8,0.5 C5.23857625,0.5 3,2.73857625 3,5.5 C2.9999844,6.92794377 3.6203508,8.28545144 4.7,9.22 C1.84094096,10.5146379 0.0030061001,13.3614817 -8.8817842e-16,16.5 C-8.8817842e-16,17.0522847 0.44771525,17.5 1,17.5 C1.55228475,17.5 2,17.0522847 2,16.5 C2,13.1862915 4.6862915,10.5 8,10.5 C11.3137085,10.5 14,13.1862915 14,16.5 C14,17.0522847 14.4477153,17.5 15,17.5 C15.5522847,17.5 16,17.0522847 16,16.5 C15.9969939,13.3614817 14.159059,10.5146379 11.3,9.22 L11.3,9.22 Z M8,8.5 C6.34314575,8.5 5,7.15685425 5,5.5 C5,3.84314575 6.34314575,2.5 8,2.5 C9.65685425,2.5 11,3.84314575 11,5.5 C11,6.29564947 10.6839295,7.05871121 10.1213203,7.62132034 C9.55871121,8.18392948 8.79564947,8.5 8,8.5 Z M17.74,8.82 C19.0472579,7.34789274 19.3689572,5.24567904 18.5617649,3.44999989 C17.7545726,1.65432075 15.9687617,0.499473436 14,0.49999982 C13.4477153,0.49999982 13,0.94771525 13,1.49999982 C13,2.05228475 13.4477153,2.49999982 14,2.49999982 C15.6568542,2.49999982 17,3.84314575 17,5.49999982 C16.9971202,6.5689103 16.4257091,7.55554679 15.5,8.09 C15.1985079,8.26390695 15.0091273,8.5820664 15,8.93 C14.9914951,9.27512501 15.1616073,9.60022839 15.45,9.79 L15.84,10.05 L15.97,10.12 C18.4310752,11.2872862 19.9915345,13.7762188 19.97,16.4999998 C19.97,17.0522847 20.4177153,17.4999998 20.97,17.4999998 C21.5222847,17.4999998 21.97,17.0522847 21.97,16.4999998 C21.9866208,13.3798293 20.3859626,10.4736696 17.74,8.82 L17.74,8.82 Z" id="Shape"></path>
        </g>
    </g>
</svg>