<?xml version="1.0" encoding="UTF-8"?>
<svg width="24px" height="24px" viewBox="0 0 24 24" version="1.1" xmlns="http://www.w3.org/2000/svg" xmlns:xlink="http://www.w3.org/1999/xlink">

    <g id="Icons/Basic/user" stroke="none" stroke-width="1"  fill-rule="evenodd">
        <g id="user" transform="translate(2.000000, 1.000000)" >
            <path d="M13.71,11.71 C15.7196481,10.1288736 16.5063934,7.44781535 15.6697872,5.03146764 C14.833181,2.61511992 12.5570777,0.994504268 10,0.994504268 C7.44292233,0.994504268 5.16681896,2.61511992 4.33021277,5.03146764 C3.49360659,7.44781535 4.28035186,10.1288736 6.29,11.71 C2.86709688,13.0813461 0.476616882,16.2250964 0.07,19.89 C0.00924867752,20.4422847 0.40771525,20.9392487 0.96,21 C1.51228475,21.0607513 2.00924868,20.6622847 2.07,20.11 C2.52463114,16.0627414 5.94728691,13.0030286 10.02,13.0030286 C14.0927131,13.0030286 17.5153689,16.0627414 17.97,20.11 C18.0263151,20.6189349 18.4579683,21.0031062 18.97,21 L19.08,21 C19.6256411,20.937218 20.0185241,20.4461142 19.96,19.9 C19.5514175,16.2243093 17.1475144,13.0742347 13.71,11.71 L13.71,11.71 Z M10,11 C7.790861,11 6,9.209139 6,7 C6,4.790861 7.790861,3 10,3 C12.209139,3 14,4.790861 14,7 C14,8.06086596 13.5785726,9.07828161 12.8284271,9.82842712 C12.0782816,10.5785726 11.060866,11 10,11 Z" id="Shape"></path>
        </g>
    </g>
</svg>