<?xml version="1.0" encoding="UTF-8"?>
<svg width="24px" height="24px" viewBox="0 0 24 24" version="1.1" xmlns="http://www.w3.org/2000/svg" xmlns:xlink="http://www.w3.org/1999/xlink">

    <g id="Icons/Basic/user-check" stroke="none" stroke-width="1"  fill-rule="evenodd">
        <g id="user-check" transform="translate(2.000000, 3.000000)" >
            <path d="M11.3,9.22 C12.3796492,8.28545144 13.0000156,6.92794377 13,5.5 C13,2.73857625 10.7614237,0.5 8,0.5 C5.23857625,0.5 3,2.73857625 3,5.5 C2.9999844,6.92794377 3.6203508,8.28545144 4.7,9.22 C1.84094096,10.5146379 0.0030061001,13.3614817 8.8817842e-16,16.5 C8.8817842e-16,17.0522847 0.44771525,17.5 1,17.5 C1.55228475,17.5 2,17.0522847 2,16.5 C2,13.1862915 4.68629154,10.5 8,10.5 C11.3137085,10.5 14,13.1862915 14,16.5 C14,17.0522847 14.4477153,17.5 15,17.5 C15.5522847,17.5 16,17.0522847 16,16.5 C15.9969939,13.3614817 14.159059,10.5146379 11.3,9.22 L11.3,9.22 Z M8,8.5 C6.34314575,8.5 5,7.15685425 5,5.5 C5,3.84314575 6.34314575,2.5 8,2.5 C9.65685425,2.5 11,3.84314575 11,5.5 C11,6.29564947 10.6839295,7.05871121 10.1213203,7.62132034 C9.55871121,8.18392948 8.79564947,8.5 8,8.5 Z M19.71,6.13 C19.5222334,5.94068735 19.2666375,5.83420168 19,5.83420168 C18.7333625,5.83420168 18.4777666,5.94068735 18.29,6.13 L16.29,8.13 L15.67,7.5 C15.4822334,7.31068735 15.2266375,7.20420168 14.96,7.20420168 C14.6933625,7.20420168 14.4377666,7.31068735 14.25,7.5 C13.8622764,7.89003745 13.8622764,8.51996255 14.25,8.91 L15.59,10.25 C15.9800375,10.6377236 16.6099625,10.6377236 17,10.25 L19.67,7.58 C19.8740383,7.39674666 19.9938604,7.13773732 20.0014231,6.86359098 C20.0089858,6.58944465 19.9036251,6.32422337 19.71,6.13 Z" id="Shape"></path>
        </g>
    </g>
</svg>