<?xml version="1.0" encoding="UTF-8"?>
<svg width="24px" height="24px" viewBox="0 0 24 24" version="1.1" xmlns="http://www.w3.org/2000/svg" xmlns:xlink="http://www.w3.org/1999/xlink">

    <g id="Icons/Basic/volume" stroke="none" stroke-width="1"  fill-rule="evenodd">
        <g id="volume" transform="translate(2.000000, 4.000000)" >
            <path d="M10.43,0.1 C10.099384,-0.0430349497 9.71738839,0.00280451867 9.43,0.22 L4.65,4 L1,4 C0.44771525,4 0,4.44771525 0,5 L0,11 C0,11.5522847 0.44771525,12 1,12 L4.65,12 L9.38,15.78 C9.55593927,15.9211606 9.77443576,15.9986916 10,16.0001241 C10.1493687,16.0024672 10.2970477,15.9681232 10.43,15.9 C10.7772838,15.7345973 10.9989111,15.3846594 11,15 L11,1 C10.9989111,0.615340557 10.7772838,0.265402682 10.43,0.1 Z M9,12.92 L5.62,10.22 C5.44406073,10.0788394 5.22556424,10.0013084 5,10 L2,10 L2,6 L5,6 C5.22556424,5.9986916 5.44406073,5.92116059 5.62,5.78 L9,3.08 L9,12.92 Z M17.66,2.34 C17.2678778,1.94787785 16.6321222,1.94787787 16.24,2.34000003 C15.8478779,2.73212219 15.8478779,3.36787782 16.24,3.76 C17.430584,4.94873681 18.0673736,6.58273161 17.9951185,8.26361369 C17.9228633,9.94449577 17.1482027,11.5178174 15.86,12.6 C15.5431408,12.8709249 15.4276023,13.3099981 15.5700727,13.7017917 C15.7125431,14.0935854 16.0831269,14.3558869 16.5,14.3600019 C16.7336522,14.3604565 16.9600879,14.2790812 17.14,14.13 C18.8605075,12.6889838 19.8966109,10.5915487 19.995498,8.34947489 C20.094385,6.1074011 19.246961,3.92689263 17.66,2.34 L17.66,2.34 Z M14.83,5.17 C14.5763414,4.91634141 14.206626,4.81727645 13.8601219,4.91012193 C13.5136179,5.00296741 13.2429674,5.27361789 13.1501219,5.62012195 C13.0572765,5.96662601 13.1563414,6.33634143 13.41,6.59 C13.7855878,6.96335029 13.9977672,7.47042315 14,8 C14.0004819,8.58973512 13.7406656,9.14962092 13.29,9.53 C13.0854929,9.69954816 12.9568522,9.94350078 12.9324631,10.2080285 C12.908074,10.4725562 12.9899411,10.7359174 13.16,10.94 C13.3309706,11.1430364 13.5756482,11.26977 13.8401252,11.2922787 C14.1046022,11.3147874 14.3671775,11.2312242 14.57,11.06 C15.4750599,10.301145 15.9984807,9.18109778 16,8 C15.9943515,6.94010977 15.5744495,5.92444955 14.83,5.17 L14.83,5.17 Z" id="Shape"></path>
        </g>
    </g>
</svg>