<?xml version="1.0" encoding="UTF-8"?>
<svg width="11px" height="8px" viewBox="0 0 6 11" version="1.1" xmlns="http://www.w3.org/2000/svg" xmlns:xlink="http://www.w3.org/1999/xlink">
    <g id="Design-System" stroke="none" stroke-width="1" fill-rule="evenodd">
        <g id="Icons" transform="translate(-117.000000, -267.000000)" >
            <g id="angle-right-b" transform="translate(117.000000, 267.000000)">
                <path d="M5.79072,4.83072 L1.44384,0.49152 C1.29963525,0.346127884 1.10333763,0.264346887 0.89856,0.264346887 C0.693782372,0.264346887 0.497484749,0.346127884 0.35328,0.49152 C0.0555082793,0.791068765 0.0555082793,1.27485124 0.35328,1.5744 L4.15488,5.4144 L0.35328,9.216 C0.0555082793,9.51554876 0.0555082793,9.99933124 0.35328,10.29888 C0.496950863,10.4454571 0.693315152,10.528428 0.89856,10.52928 C1.10380485,10.528428 1.30016914,10.4454571 1.44384,10.29888 L5.79072,5.95968 C5.94832219,5.81428563 6.03796446,5.60962475 6.03796446,5.3952 C6.03796446,5.18077525 5.94832219,4.97611437 5.79072,4.83072 Z" id="Path"></path>
            </g>
        </g>
    </g>
</svg>