<svg xmlns="http://www.w3.org/2000/svg" width="19" height="19" viewBox="0 0 19 19">
    <path  fill-rule="evenodd" d="M15.042 1.583H3.958a2.375 2.375 0 0 0-2.375 2.375v.927c0 .326.068.65.198.95v.047c.112.254.27.485.467.68l4.877 4.846v5.217a.792.792 0 0 0 .792.792c.124-.001.246-.03.356-.087l3.167-1.584a.792.792 0 0 0 .435-.704v-3.634l4.845-4.845c.197-.196.355-.427.467-.68v-.048c.142-.298.22-.621.23-.95v-.927a2.375 2.375 0 0 0-2.375-2.375zm-4.52 8.938a.792.792 0 0 0-.23.562v3.468l-1.584.791v-4.259a.792.792 0 0 0-.23-.562L4.284 6.333h10.434l-4.196 4.188zm5.311-5.771H3.167v-.792c0-.437.354-.791.791-.791h11.084c.437 0 .791.354.791.791v.792z"/>
</svg>
