<svg xmlns="http://www.w3.org/2000/svg" width="13" height="16" viewBox="0 0 13 16">
    <path fill-rule="evenodd" d="M4 6.4h.8a.8.8 0 1 0 0-1.6H4a.8.8 0 1 0 0 1.6zM4 8a.8.8 0 1 0 0 1.6h4.8a.8.8 0 1 0 0-1.6H4zm8.8-2.448a1.048 1.048 0 0 0-.048-.216v-.072a.856.856 0 0 0-.152-.224L7.8.24a.856.856 0 0 0-.224-.152.256.256 0 0 0-.072 0A.704.704 0 0 0 7.24 0H2.4A2.4 2.4 0 0 0 0 2.4v11.2A2.4 2.4 0 0 0 2.4 16h8a2.4 2.4 0 0 0 2.4-2.4v-8-.048zM8 2.728L10.072 4.8H8.8A.8.8 0 0 1 8 4V2.728zM11.2 13.6a.8.8 0 0 1-.8.8h-8a.8.8 0 0 1-.8-.8V2.4a.8.8 0 0 1 .8-.8h4V4a2.4 2.4 0 0 0 2.4 2.4h2.4v7.2zm-2.4-2.4H4a.8.8 0 1 0 0 1.6h4.8a.8.8 0 1 0 0-1.6z"/>
</svg>
